# 3ds Max Wavefront OBJ Exporter v0.99 - (c)2007 guruware
# File Created: 18.11.2025 18:52:49

mtllib Pien uv.mtl

#
# object Pien
#

v  26.7762 22.0310 -37.6341
v  37.8443 23.6846 -27.2463
v  42.0221 31.9163 -33.1913
v  31.3994 30.6028 -43.1026
v  35.0192 9.8452 -22.3854
v  40.8751 10.6998 -7.5644
v  47.5227 35.3907 -11.7957
v  42.3027 33.7388 -25.7221
v  40.6093 11.8748 8.3291
v  47.2874 38.2224 5.5100
v  34.4852 13.5477 22.6528
v  41.1807 41.4974 19.6830
v  23.0973 14.9357 33.5175
v  25.1844 44.6665 34.7439
v  37.1066 42.8383 24.6149
v  8.2132 16.0611 39.2805
v  11.5304 45.9156 39.7071
v  -7.7503 16.8019 38.9135
v  -5.9198 46.6105 39.2313
v  -22.3668 16.9880 32.4741
v  -19.9960 46.0694 33.2457
v  -33.4112 16.5715 20.9415
v  -32.2792 31.3173 20.5537
v  -21.8805 31.3772 31.0734
v  -39.1984 15.6418 6.0682
v  -40.1311 45.0169 3.1769
v  -34.8942 45.2708 18.5236
v  -38.8412 14.4021 -9.8858
v  -39.6718 43.4678 -14.2482
v  -34.8526 13.2157 -20.5048
v  -35.1088 41.1736 -26.1094
v  -21.4505 11.4275 -34.9038
v  -20.5217 37.2096 -41.7808
v  -5.4550 11.7830 -41.9043
v  -8.0324 35.2288 -47.6733
v  8.2384 11.1848 -41.5923
v  8.7776 32.3196 -49.3770
v  -3.0861 33.3772 -49.4038
v  12.0723 23.5948 -44.4474
v  16.2405 31.6413 -49.7851
v  8.8146 -32.4193 -40.2921
v  23.5628 -32.4193 -33.8518
v  22.6648 -11.4511 -32.4710
v  8.2906 -11.3942 -38.7648
v  23.9373 9.4809 -33.8697
v  -7.2754 -32.4193 -40.5982
v  -7.3937 -11.1705 -39.1100
v  -22.2579 -32.4193 -34.7237
v  -22.0178 -10.8002 -33.4413
v  -36.0995 -32.2135 -19.8095
v  -35.6046 -10.1261 -18.8477
v  -40.2921 -32.4193 -8.8146
v  -39.6711 -9.9096 -8.2257
v  -40.5982 -32.4193 7.2754
v  -39.9772 -9.5925 7.1493
v  -34.7237 -32.4193 22.2579
v  -34.2335 -9.3988 22.1557
v  -23.5628 -32.4193 33.8518
v  -23.2998 -9.3229 33.5121
v  -8.8146 -32.4193 40.2921
v  -8.8523 -9.3580 39.8261
v  7.2754 -32.4193 40.5982
v  6.8990 -9.5083 40.1330
v  22.2579 -32.4193 34.7237
v  23.2952 -12.0333 37.6733
v  33.8518 -32.4193 23.5628
v  32.8468 -10.1720 23.4817
v  40.2921 -32.4193 8.8146
v  39.0875 -10.6348 9.0862
v  40.5982 -32.4193 -7.2754
v  39.3317 -11.0565 -6.5954
v  34.7237 -32.4193 -22.2579
v  33.5617 -11.3360 -21.1816
v  31.2708 15.9448 -44.0162
v  36.5632 25.7206 -50.4144
v  49.9087 27.3404 -37.7546
v  45.0735 18.0106 -30.9487
v  44.4564 8.1700 -23.9815
v  50.5927 30.9697 -29.8456
v  57.2580 32.7651 -13.3095
v  50.3528 9.2976 -9.0517
v  57.0404 36.4133 7.8698
v  50.0128 10.8801 10.5964
v  49.4389 40.5707 25.5911
v  42.3809 13.0047 28.3332
v  44.1631 42.2173 31.6837
v  30.6900 44.5158 43.3246
v  28.2707 14.8701 41.7786
v  13.3851 46.4122 49.7209
v  9.8293 16.3160 48.8811
v  -8.0619 47.5687 49.1538
v  -9.8396 17.3322 48.4050
v  -25.7495 47.1770 41.5644
v  -27.9443 17.7329 40.4237
v  -27.7309 31.9363 39.2791
v  -40.3230 31.7542 26.4338
v  -39.2210 18.8114 25.6808
v  -43.5036 46.3018 23.8880
v  -50.1782 45.6405 4.7985
v  -48.2405 18.9838 5.9253
v  -49.6102 43.4654 -16.5262
v  -46.4266 13.7248 -13.6309
v  -43.5016 40.3789 -31.8445
v  -42.9184 12.8857 -25.9599
v  -26.0893 35.4868 -50.1471
v  -26.8355 10.6094 -42.9603
v  -9.9026 32.6484 -57.3587
v  -7.9780 10.7383 -50.0266
v  -3.5445 30.9200 -58.0769
v  9.4181 29.7185 -57.4963
v  10.8443 9.7591 -49.5875
v  13.3742 17.9119 -52.3885
v  18.4043 27.0261 -58.5052
v  18.9227 -29.5290 -56.1532
v  18.3166 -11.2287 -55.5170
v  33.4441 -11.2875 -42.5224
v  34.3265 -31.6576 -43.8795
v  29.3846 7.7327 -41.6523
v  -14.4071 -29.6081 -50.2800
v  -9.0998 -32.1497 -72.7607
v  12.3177 -32.0644 -72.3327
v  11.9111 -3.6971 -58.3365
v  -32.7680 -31.8848 -44.8002
v  -27.3123 -10.7279 -41.6257
v  -13.6459 -11.2184 -49.7825
v  -47.9429 -31.1268 -25.8323
v  -43.6362 -9.9906 -24.3696
v  -49.8126 -31.3872 -13.8409
v  -46.7933 -9.3048 -14.3004
v  -56.7628 2.5187 7.3037
v  -55.7804 -0.8467 -7.5790
v  -69.6343 -7.9970 -5.1161
v  -70.7391 -5.8903 7.1336
v  -56.0819 -11.7409 -8.6156
v  -77.1872 -15.7262 -3.9289
v  -56.7976 -0.7219 19.6890
v  -69.9240 -7.8953 19.1232
v  -59.5881 -32.1734 7.3894
v  -60.2842 -32.2174 26.3437
v  -73.2246 -32.1043 22.9182
v  -72.9404 -32.0668 7.2142
v  -29.1320 -32.2386 41.8497
v  -28.8749 -8.9396 41.4987
v  -38.1682 -9.2814 27.3020
v  -41.1452 -32.0566 25.8622
v  -18.7699 -32.1480 49.7931
v  -17.2092 -11.1059 49.3359
v  17.0542 -32.1089 50.2042
v  14.6474 -11.3447 49.7326
v  5.8479 -18.8988 69.9884
v  10.6914 -32.1076 70.5276
v  -8.2451 -18.7259 69.7012
v  -9.8396 -3.1795 57.4793
v  29.6945 -33.0548 44.6715
v  26.7462 -9.6606 42.6323
v  44.0826 -33.3389 32.5236
v  40.8115 -10.1802 29.1013
v  49.8124 -31.9159 10.8458
v  48.5998 -10.7181 11.2124
v  51.9227 -2.4593 -0.6653
v  59.4868 -10.4574 2.3695
v  65.0313 -13.4872 -12.9608
v  54.8447 -4.5876 -8.5429
v  41.9088 -31.7010 -30.0299
v  40.7932 -11.2541 -28.9273
v  58.9076 -11.8149 -27.3468
v  58.7386 -31.4403 -31.4829
v  -48.8927 -32.1748 7.5125
v  50.1648 -31.7959 -9.0384
v  -43.0732 46.4317 -33.3492
v  -25.6609 41.5397 -51.6518
v  -25.2380 47.8609 34.0808
v  -35.7947 47.4367 24.2654
v  -43.8231 47.2472 30.3996
v  -30.8733 47.7891 42.5770
v  -34.6805 47.2264 -27.6140
v  -20.0933 43.2624 -43.2855
v  -5.8606 -27.9487 -84.3730
v  10.5447 -27.9073 -84.0311
v  -9.1576 -12.5837 -72.7522
v  -7.9000 -2.6664 -58.7987
v  13.2449 -12.5962 -72.1035
v  8.6762 -13.0760 -84.0486
v  8.6037 -25.4671 -95.6614
v  6.2790 -18.0156 -97.2882
v  -3.6391 -13.0243 -84.3974
v  -1.7605 -18.0469 -97.5166
v  4.7023 -29.4058 -108.1201
v  0.3803 -29.4606 -108.2110
v  -4.2557 -25.5364 -95.8989
v  -2.5928 -29.8433 -103.7059
v  7.4731 -29.7799 -103.5724
v  -94.1129 -20.5363 22.2934
v  -93.9436 -20.5513 14.1656
v  -106.6817 -23.9749 16.6752
v  -106.7659 -23.9679 20.8128
v  -75.2019 -12.1334 7.0738
v  -96.2450 -31.8520 15.8070
v  -96.4206 -31.8747 25.5548
v  -111.8122 -31.9387 23.7053
v  -111.7272 -31.9285 18.9141
v  -73.7392 -15.6131 18.9183
v  -56.3671 -11.5329 21.7837
v  -59.3132 -32.0583 -12.0325
v  -76.6171 -31.9343 -7.4204
v  -103.7475 -31.8164 -4.3749
v  -100.0959 -23.3038 -2.3560
v  -100.0597 -23.3408 -5.8722
v  -103.7208 -31.7669 -8.6365
v  -92.1372 -20.2158 2.7973
v  -92.6334 -20.2808 -4.5938
v  -94.6875 -31.7092 -7.0396
v  -94.0562 -31.7959 1.9178
v  -80.6799 -31.7755 7.1146
v  -85.6372 -31.6514 -6.5932
v  -81.3914 -17.1047 19.1641
v  -80.9460 -31.8106 21.8190
v  -85.1929 -17.2207 -4.2650
v  -81.1371 -17.1277 7.0460
v  67.6023 -31.5352 -9.4282
v  60.6993 -31.6552 2.0029
v  79.7928 -26.9377 -19.0882
v  72.7458 -26.8429 -37.0023
v  85.5660 -29.9975 -31.7746
v  90.1839 -29.7041 -20.0353
v  48.9483 -5.7153 -23.4728
v  86.3718 -19.8975 -31.1045
v  89.7046 -19.8114 -22.7010
v  98.4035 -22.3701 -27.6872
v  96.3577 -22.4229 -32.8456
v  73.2921 -12.3188 -33.0367
v  77.4738 -12.1999 -22.4357
v  96.2041 -29.5843 -33.5982
v  99.2356 -29.3916 -25.8914
v  -12.5716 -32.1492 70.0907
v  8.9759 -31.9339 84.9914
v  -10.8561 -31.9693 84.6190
v  8.7769 -4.1957 57.9555
v  4.3111 -21.8236 84.4531
v  -6.7083 -21.6884 84.2285
v  -5.2226 -33.0451 95.4965
v  2.5703 -33.2305 95.4964
v  4.1637 -35.2467 92.6696
v  -6.5370 -35.0844 92.5497
v  39.3168 23.9041 -27.0542
v  3.8561 29.7267 -5.1544
v  45.2292 28.4025 4.9291
v  45.4541 25.6954 -11.6152
v  26.6253 34.5631 31.6684
v  38.6874 32.1866 20.1448
v  -5.6371 36.4215 37.1668
v  11.0453 35.7572 37.6216
v  -32.3661 35.9628 18.2664
v  -20.8813 36.4904 30.3704
v  -37.9042 33.4171 -13.9598
v  -38.3433 34.8981 2.6987
v  -19.5966 27.4342 -40.2811
v  -31.2943 31.0180 -29.0524
v  12.4546 23.4944 -45.7655
v  -4.1800 24.9508 -46.1907
v  27.7283 23.1230 -39.0450
v  26.4273 8.7307 31.9993
v  38.5788 7.9383 20.3525
v  -19.4362 7.0637 -40.5112
v  -31.2672 9.0989 -29.0373
v  10.8085 8.7692 37.9706
v  -3.9339 5.7327 -46.5666
v  -5.8866 8.8726 37.5077
v  12.7423 4.8428 -46.2115
v  -21.1167 9.0607 30.6821
v  39.5540 4.3758 -27.4292
v  28.0129 4.3625 -39.4911
v  -32.5632 9.3144 18.5331
v  45.6073 4.8572 -11.8613
v  -38.4829 9.5740 2.9092
v  45.2683 5.9108 4.8680
v  -37.9743 9.7588 -13.8120
# 277 vertices

vn -0.5674 0.6449 0.5120
vn -0.8968 0.3068 0.3188
vn -0.9681 0.2466 -0.0444
vn -0.8932 0.1759 -0.4139
vn -0.6592 0.0929 -0.7462
vn -0.3471 0.0574 -0.9361
vn 0.0257 0.0103 -0.9996
vn 0.3975 -0.0114 -0.9175
vn 0.7154 -0.0823 -0.6939
vn 0.9393 0.0077 -0.3430
vn 0.9992 0.0328 0.0217
vn 0.9358 0.0779 0.3439
vn 0.7379 0.1439 0.6593
vn 0.4117 0.2397 0.8793
vn 0.4116 0.2397 0.8793
vn 0.0093 0.3362 0.9417
vn -0.2766 0.6224 0.7322
vn -0.3996 -0.0768 0.9135
vn -0.4156 0.0995 0.9041
vn -0.0209 -0.0715 0.9972
vn -0.0188 0.1233 0.9922
vn -0.0187 0.1233 0.9922
vn 0.3619 -0.0611 0.9302
vn 0.3815 0.0657 0.9220
vn 0.7309 -0.0473 0.6808
vn 0.7309 -0.0472 0.6808
vn 0.7328 0.0253 0.6800
vn 0.9335 -0.0358 0.3567
vn 0.9349 -0.0063 0.3549
vn 0.9994 -0.0276 0.0197
vn 0.9993 -0.0312 0.0227
vn 0.9322 -0.0244 -0.3610
vn 0.9326 -0.0452 -0.3582
vn 0.7203 -0.0184 -0.6934
vn 0.7208 -0.0540 -0.6910
vn 0.4002 -0.0179 -0.9162
vn 0.4010 -0.0496 -0.9147
vn 0.0192 -0.0201 -0.9996
vn 0.0191 -0.0201 -0.9996
vn 0.0202 -0.0350 -0.9992
vn -0.2518 0.0593 -0.9660
vn -0.2627 -0.0860 -0.9610
vn -0.7688 0.0435 -0.6380
vn -0.7663 -0.0413 -0.6412
vn -0.9163 -0.0443 -0.3980
vn -0.9161 0.0490 -0.3980
vn -0.9982 -0.0568 -0.0165
vn -0.9975 0.0683 -0.0196
vn -0.9281 -0.0683 0.3661
vn -0.9281 -0.0682 0.3661
vn -0.9278 0.0832 0.3636
vn -0.7177 -0.0756 0.6922
vn -0.7176 0.0892 0.6907
vn 0.5673 -0.6501 -0.5055
vn 0.8893 -0.3218 -0.3251
vn 0.8892 -0.3218 -0.3251
vn 0.9625 -0.2669 0.0473
vn 0.9626 -0.2669 0.0473
vn 0.9625 -0.2669 0.0474
vn 0.8887 -0.1929 0.4160
vn 0.6598 -0.1090 0.7435
vn 0.6598 -0.1089 0.7435
vn 0.3465 -0.0720 0.9353
vn -0.0266 -0.0240 0.9994
vn -0.3989 -0.0025 0.9170
vn -0.7564 -0.0153 0.6539
vn -0.9234 -0.0859 0.3741
vn -0.9234 -0.0859 0.3742
vn -0.9948 -0.0933 -0.0410
vn -0.9435 -0.1100 -0.3126
vn -0.7321 -0.1628 -0.6615
vn -0.3806 -0.2828 -0.8804
vn 0.0044 -0.3697 -0.9291
vn 0.2742 -0.6308 -0.7259
vn 0.6390 0.0641 -0.7665
vn 0.5186 0.2864 -0.8056
vn 0.0159 -0.9914 0.1297
vn 0.7274 0.4137 -0.5475
vn -0.3944 0.1462 -0.9072
vn -0.4235 0.0271 -0.9055
vn -0.7279 0.2385 -0.6428
vn -0.7273 -0.0257 -0.6858
vn -0.9604 0.1680 -0.2221
vn -0.9605 0.1680 -0.2221
vn -0.9580 0.0169 -0.2862
vn -0.4903 0.8463 -0.2084
vn -0.2263 0.0876 -0.9701
vn -0.4926 0.8474 0.1981
vn -0.0080 -1.0000 -0.0026
vn -0.8163 0.0437 0.5760
vn -0.8145 0.0267 0.5796
vn -0.5795 0.0386 0.8140
vn -0.4600 0.1014 0.8821
vn 0.9040 0.2041 0.3758
vn 0.9040 0.2041 0.3757
vn -0.8278 0.2577 0.4983
vn 0.4498 0.1050 0.8869
vn 0.4207 0.0561 0.9055
vn 0.6625 0.1740 0.7286
vn 0.6905 -0.0202 0.7230
vn 0.9390 0.1172 0.3234
vn 0.9153 -0.0486 0.3998
vn 0.6999 0.7051 0.1138
vn 0.9916 0.0379 0.1233
vn 0.9917 0.0379 0.1232
vn 0.9166 0.3060 0.2573
vn 0.0047 0.1297 -0.9915
vn 0.8762 0.0716 -0.4766
vn 0.8762 0.0716 -0.4767
vn 0.8082 0.0962 -0.5810
vn -0.0661 -0.9976 -0.0199
vn -0.3265 -0.0915 -0.9408
vn 0.0340 0.9949 -0.0947
vn 0.0003 -0.9995 0.0304
vn 0.0112 -0.9913 -0.1308
vn 0.0493 0.9962 -0.0720
vn 0.0494 0.9962 -0.0720
vn 0.9805 0.0882 0.1755
vn 0.0590 -0.9983 -0.0022
vn 0.0590 -0.9983 -0.0023
vn -0.0777 -0.9961 -0.0407
vn 0.2256 0.9611 -0.1592
vn 0.0361 0.9829 -0.1804
vn -0.0074 -0.9998 0.0192
vn 0.0160 0.9943 -0.1057
vn 0.0006 -0.9992 -0.0388
vn -0.0574 -0.9981 -0.0208
vn 0.2094 0.9684 -0.1357
vn -0.7348 -0.1142 -0.6686
vn -0.0285 -0.9994 0.0173
vn -0.0308 0.9995 -0.0109
vn -0.0460 -0.9982 -0.0391
vn 0.0080 -0.9847 -0.1739
vn 0.0466 -0.9983 -0.0360
vn 0.5906 0.2532 0.7662
vn 0.5907 0.2532 0.7662
vn 0.0481 0.9670 -0.2503
vn 0.2701 0.8756 -0.4006
vn -0.0364 -0.9992 0.0184
vn 0.0694 0.9963 -0.0505
vn 0.0695 0.9963 -0.0505
vn -0.0301 -0.9995 0.0099
vn -0.0233 -0.9751 -0.2204
vn 0.0824 0.9953 -0.0511
vn 0.9693 0.0256 -0.2443
vn 0.0641 -0.9976 -0.0278
vn 0.0415 0.9757 -0.2153
vn 0.0415 0.9757 -0.2152
vn 0.7413 0.1120 0.6617
vn 0.8351 -0.1877 -0.5171
vn 0.8351 -0.1876 -0.5171
vn -0.5634 0.2367 0.7916
vn -0.5633 0.2367 0.7916
vn 0.0938 0.9536 -0.2862
vn -0.9700 0.2060 0.1292
vn 0.2245 0.9546 -0.1956
vn -0.5553 0.2201 0.8020
vn 0.2435 0.8792 -0.4096
vn -0.9036 0.2541 -0.3450
vn 0.1203 0.9916 -0.0477
vn 0.6496 0.0201 -0.7600
vn -0.6070 0.0111 -0.7946
vn -0.6070 0.0111 -0.7947
vn 0.5878 0.1203 0.8000
vn 0.5879 0.1203 0.8000
vn 0.8172 0.0312 0.5755
vn -0.8134 0.0823 -0.5759
vn 0.6646 0.2827 -0.6916
vn -0.6633 -0.2995 0.6858
vn 0.8235 0.0554 0.5647
vn -0.5970 0.0618 -0.7999
vn -0.9273 0.1999 -0.3166
vn 0.4219 0.3553 0.8341
vn 0.3464 -0.3661 -0.8637
vn 0.6817 -0.4083 -0.6071
vn -0.3780 0.3304 0.8648
vn -0.6727 0.3563 0.6484
vn 0.0100 -0.9415 -0.3369
vn 0.0100 -0.9415 -0.3370
vn 0.0352 0.8269 -0.5612
vn -0.8976 0.3935 -0.1988
vn 0.9420 -0.0003 -0.3356
vn 0.9420 -0.0003 -0.3357
vn -0.9770 0.0209 -0.2124
vn 0.0480 0.5471 -0.8357
vn 0.9680 0.1685 -0.1858
vn 0.9666 0.0281 -0.2549
vn -0.9373 0.0586 -0.3435
vn 0.0030 0.9992 -0.0389
vn 0.0030 0.9992 -0.0388
vn 0.0140 0.6866 -0.7269
vn -0.9686 0.1923 -0.1573
vn -0.9687 0.1923 -0.1573
vn 0.0110 0.9353 -0.3537
vn 0.0078 -0.9787 -0.2052
vn 0.0095 -0.9965 -0.0831
vn -0.0027 -0.8768 0.4808
vn 0.8849 0.2862 -0.3676
vn 0.8849 0.2862 -0.3675
vn -0.8661 0.2788 -0.4150
vn -0.8660 0.2788 -0.4150
vn 0.7802 0.5571 -0.2845
vn -0.9047 0.2296 -0.3588
vn -0.2609 0.9653 -0.0071
vn -0.7570 0.6407 -0.1284
vn 0.0045 -1.0000 -0.0022
vn -0.8452 0.4975 0.1953
vn -0.8452 0.4975 0.1952
vn -0.1576 0.1286 0.9791
vn -0.2494 0.1975 -0.9481
vn -0.0084 -0.9999 -0.0064
vn -0.0085 -0.9999 -0.0064
vn -0.2271 0.2382 0.9443
vn -0.2272 0.2382 0.9443
vn -0.9174 0.3980 -0.0068
vn -0.8469 0.5316 -0.0159
vn -0.3736 0.9275 0.0071
vn -0.3736 0.9276 0.0071
vn 0.1279 0.2171 -0.9677
vn -0.1536 0.3527 0.9231
vn 0.0087 -0.9999 -0.0107
vn -0.0342 -0.9994 0.0014
vn -0.0702 0.2060 0.9760
vn -0.0416 0.1863 -0.9816
vn -0.0415 0.1863 -0.9816
vn -0.4209 0.9064 -0.0357
vn -0.4209 0.9064 -0.0358
vn -0.0376 -0.9993 -0.0031
vn -0.4239 0.8931 0.1502
vn -0.4239 0.8932 0.1502
vn -0.5477 0.0312 0.8361
vn -0.1782 -0.1286 -0.9755
vn -0.1782 -0.1286 -0.9756
vn -0.1390 0.0928 0.9859
vn 0.0313 -0.9993 -0.0226
vn -0.3849 0.1206 -0.9151
vn -0.3470 0.0760 0.9348
vn -0.3470 0.0761 0.9348
vn -0.3471 0.0760 0.9348
vn 0.0054 -1.0000 0.0010
vn -0.7940 0.5399 0.2793
vn -0.5659 0.0525 -0.8228
vn -0.8701 0.4568 -0.1851
vn -0.8701 0.4568 -0.1850
vn -0.4845 -0.0232 -0.8745
vn 0.2079 0.2025 0.9570
vn 0.0036 -1.0000 -0.0023
vn -0.2621 0.9650 -0.0073
vn -0.3603 -0.0088 0.9328
vn 0.0062 -0.9999 -0.0108
vn 0.0121 0.1804 -0.9835
vn -0.3317 0.9406 0.0728
vn 0.9051 0.1202 0.4079
vn -0.2648 -0.9580 0.1106
vn -0.2648 -0.9580 0.1105
vn 0.5300 0.8236 -0.2020
vn 0.0868 0.6312 -0.7707
vn 0.0147 -0.9998 -0.0102
vn 0.8874 0.2735 -0.3711
vn 0.6300 0.0226 0.7763
vn 0.0172 -0.9998 -0.0037
vn 0.2275 0.9686 -0.1001
vn 0.5131 0.8318 -0.2119
vn 0.5131 0.8317 -0.2119
vn 0.1666 0.2517 0.9534
vn 0.1665 0.2517 0.9534
vn 0.3234 0.1579 -0.9330
vn -0.3855 0.2206 -0.8959
vn 0.5562 0.2493 0.7927
vn 0.0048 0.9982 0.0601
vn 0.2705 -0.9561 -0.1122
vn 0.2706 -0.9561 -0.1122
vn 0.9299 0.0175 -0.3673
vn 0.0403 -0.9991 0.0091
vn 0.0404 -0.9991 0.0091
vn 0.5273 0.2547 0.8106
vn -0.1607 0.0899 -0.9829
vn 0.4904 0.1271 -0.8622
vn 0.4904 0.1270 -0.8622
vn 0.4631 0.6617 0.5897
vn 0.4631 0.6617 0.5896
vn 0.6688 0.7419 0.0476
vn 0.0016 -0.9999 0.0122
vn 0.0045 0.6254 0.7803
vn 0.8678 0.1796 0.4634
vn -0.0013 0.4046 0.9145
vn -0.9136 0.1652 0.3716
vn 0.0014 -1.0000 -0.0000
vn 0.0014 -1.0000 0.0000
vn 0.0034 0.7000 0.7142
vn 0.0034 0.6999 0.7142
vn -0.9314 0.3375 0.1366
vn 0.9147 0.3794 0.1389
vn 0.0080 0.9800 0.1990
vn -0.0191 -0.8186 0.5741
vn 0.0023 -0.9247 -0.3807
vn -0.8418 0.2771 0.4633
vn -0.8417 0.2771 0.4634
vn 0.7939 0.3111 0.5225
vn 0.0719 0.9858 -0.1519
vn 0.0630 0.9812 -0.1822
vn 0.0323 0.9889 -0.1448
vn 0.0778 0.9879 -0.1339
vn 0.1035 0.9900 -0.0960
vn 0.1276 0.9826 -0.1346
vn 0.0983 0.9861 -0.1340
vn 0.0798 0.9875 -0.1362
vn 0.6916 0.0035 0.7223
vn -0.6943 0.0006 -0.7197
vn 0.3573 0.0091 0.9339
vn -0.3597 0.0106 -0.9330
vn -0.0272 0.0129 0.9995
vn 0.0250 0.0220 -0.9994
vn -0.4079 0.0144 0.9129
vn 0.7202 0.0247 -0.6933
vn 0.7202 0.0247 -0.6934
vn 0.4033 0.0280 -0.9147
vn -0.7266 0.0132 0.6869
vn 0.9302 0.0146 -0.3668
vn -0.9344 0.0093 0.3562
vn -0.9344 0.0093 0.3561
vn 0.9999 0.0043 0.0165
vn -0.9996 0.0041 -0.0285
vn 0.9183 -0.0001 0.3958
vn -0.9156 -0.0006 -0.4021
# 325 vertex normals

vt 0.2971 0.3619 0.0000
vt 0.2615 0.3890 0.0000
vt 0.2634 0.3757 0.0000
vt 0.2792 0.3545 0.0000
vt 0.2625 0.4099 0.0000
vt 0.2784 0.4532 0.0000
vt 0.2350 0.4657 0.0000
vt 0.2335 0.4351 0.0000
vt 0.2812 0.4929 0.0000
vt 0.2390 0.5059 0.0000
vt 0.2788 0.5302 0.0000
vt 0.2488 0.5444 0.0000
vt 0.6603 0.5716 0.0000
vt 0.6619 0.5280 0.0000
vt 0.7190 0.5314 0.0000
vt 0.7109 0.5744 0.0000
vt 0.6599 0.4841 0.0000
vt 0.7226 0.4926 0.0000
vt 0.6586 0.4388 0.0000
vt 0.7199 0.4512 0.0000
vt 0.6660 0.3871 0.0000
vt 0.7087 0.4203 0.0000
vt 0.6395 0.3362 0.0000
vt 0.6533 0.3386 0.0000
vt 0.6621 0.3719 0.0000
vt 0.5830 0.3424 0.0000
vt 0.5790 0.2892 0.0000
vt 0.6127 0.2966 0.0000
vt 0.5319 0.3371 0.0000
vt 0.5379 0.2783 0.0000
vt 0.4963 0.3335 0.0000
vt 0.5063 0.2786 0.0000
vt 0.4343 0.3192 0.0000
vt 0.4455 0.2764 0.0000
vt 0.3783 0.2875 0.0000
vt 0.4090 0.2714 0.0000
vt 0.3352 0.3124 0.0000
vt 0.3410 0.2879 0.0000
vt 0.3643 0.2731 0.0000
vt 0.3130 0.3204 0.0000
vt 0.2974 0.3281 0.0000
vt 0.3974 0.4276 0.0000
vt 0.3865 0.4498 0.0000
vt 0.3462 0.4087 0.0000
vt 0.3685 0.3767 0.0000
vt 0.3109 0.3742 0.0000
vt 0.4132 0.4184 0.0000
vt 0.3983 0.3611 0.0000
vt 0.4349 0.4241 0.0000
vt 0.4337 0.3682 0.0000
vt 0.4713 0.4355 0.0000
vt 0.4831 0.3815 0.0000
vt 0.4938 0.4426 0.0000
vt 0.5110 0.3872 0.0000
vt 0.5222 0.4484 0.0000
vt 0.5473 0.3932 0.0000
vt 0.5435 0.4544 0.0000
vt 0.5811 0.4014 0.0000
vt 0.5528 0.4703 0.0000
vt 0.5992 0.4252 0.0000
vt 0.5542 0.4966 0.0000
vt 0.6038 0.4600 0.0000
vt 0.5561 0.5308 0.0000
vt 0.6063 0.4992 0.0000
vt 0.5637 0.5686 0.0000
vt 0.6085 0.5413 0.0000
vt 0.5782 0.6050 0.0000
vt 0.6222 0.5833 0.0000
vt 0.3538 0.5578 0.0000
vt 0.3197 0.5884 0.0000
vt 0.2917 0.5505 0.0000
vt 0.3182 0.5186 0.0000
vt 0.3716 0.5162 0.0000
vt 0.3264 0.4798 0.0000
vt 0.3782 0.4779 0.0000
vt 0.3289 0.4406 0.0000
vt 0.2492 0.3295 0.0000
vt 0.2636 0.3418 0.0000
vt 0.2454 0.3733 0.0000
vt 0.2331 0.3852 0.0000
vt 0.2063 0.4000 0.0000
vt 0.2230 0.4223 0.0000
vt 0.2134 0.4582 0.0000
vt 0.1772 0.4562 0.0000
vt 0.2217 0.5061 0.0000
vt 0.1792 0.5161 0.0000
vt 0.2379 0.5521 0.0000
vt 0.2014 0.5660 0.0000
vt 0.7897 0.5906 0.0000
vt 0.7297 0.5808 0.0000
vt 0.7401 0.5359 0.0000
vt 0.8054 0.5377 0.0000
vt 0.7442 0.4923 0.0000
vt 0.8103 0.4762 0.0000
vt 0.7414 0.4451 0.0000
vt 0.7851 0.4072 0.0000
vt 0.7234 0.4078 0.0000
vt 0.7044 0.3689 0.0000
vt 0.6757 0.3562 0.0000
vt 0.6774 0.3162 0.0000
vt 0.6673 0.2995 0.0000
vt 0.6301 0.2950 0.0000
vt 0.5908 0.2663 0.0000
vt 0.6130 0.2301 0.0000
vt 0.5455 0.2537 0.0000
vt 0.5559 0.1856 0.0000
vt 0.5106 0.2489 0.0000
vt 0.5121 0.1903 0.0000
vt 0.4487 0.2494 0.0000
vt 0.4346 0.2052 0.0000
vt 0.4112 0.2557 0.0000
vt 0.3697 0.2427 0.0000
vt 0.3493 0.2726 0.0000
vt 0.3237 0.2798 0.0000
vt 0.3040 0.2818 0.0000
vt 0.2989 0.2977 0.0000
vt 0.2923 0.3170 0.0000
vt 0.1738 0.2524 0.0000
vt 0.2219 0.2737 0.0000
vt 0.1935 0.3194 0.0000
vt 0.1453 0.2951 0.0000
vt 0.2382 0.3256 0.0000
vt 0.3747 0.7372 0.0000
vt 0.3052 0.6948 0.0000
vt 0.3507 0.6623 0.0000
vt 0.3888 0.6971 0.0000
vt 0.2566 0.2755 0.0000
vt 0.2858 0.2583 0.0000
vt 0.4223 0.0913 0.0000
vt 0.4232 0.1522 0.0000
vt 0.3787 0.1579 0.0000
vt 0.3768 0.1013 0.0000
vt 0.4801 0.0814 0.0000
vt 0.4921 0.1362 0.0000
vt 0.5089 0.0710 0.0000
vt 0.5208 0.1252 0.0000
vt 0.6402 0.1912 0.0000
vt 0.5981 0.1603 0.0000
vt 0.6328 0.1308 0.0000
vt 0.6631 0.1460 0.0000
vt 0.5957 0.1325 0.0000
vt 0.6482 0.1045 0.0000
vt 0.6762 0.2069 0.0000
vt 0.6899 0.1621 0.0000
vt 0.1314 0.7287 0.0000
vt 0.1002 0.7620 0.0000
vt 0.0821 0.7353 0.0000
vt 0.1074 0.7073 0.0000
vt 0.8280 0.3168 0.0000
vt 0.7663 0.3252 0.0000
vt 0.7608 0.2787 0.0000
vt 0.8303 0.2697 0.0000
vt 0.8364 0.3460 0.0000
vt 0.7894 0.3545 0.0000
vt 0.8990 0.5452 0.0000
vt 0.8598 0.5112 0.0000
vt 0.9075 0.4755 0.0000
vt 0.9286 0.5113 0.0000
vt 0.8818 0.3815 0.0000
vt 0.9133 0.4368 0.0000
vt 0.8575 0.4175 0.0000
vt 0.9072 0.6152 0.0000
vt 0.8642 0.5662 0.0000
vt 0.8916 0.5402 0.0000
vt 0.9310 0.5912 0.0000
vt 0.8763 0.6519 0.0000
vt 0.8347 0.6117 0.0000
vt 0.1057 0.5640 0.0000
vt 0.1422 0.5409 0.0000
vt 0.1664 0.5911 0.0000
vt 0.1118 0.6123 0.0000
vt 0.1515 0.4879 0.0000
vt 0.1312 0.5059 0.0000
vt 0.1045 0.4763 0.0000
vt 0.1391 0.4660 0.0000
vt 0.0535 0.3756 0.0000
vt 0.1118 0.3867 0.0000
vt 0.0974 0.4329 0.0000
vt 0.0425 0.4134 0.0000
vt 0.1715 0.3579 0.0000
vt 0.1227 0.3290 0.0000
vt 0.1921 0.7298 0.0000
vt 0.1661 0.7585 0.0000
vt 0.1506 0.7458 0.0000
vt 0.1827 0.7055 0.0000
vt 0.1715 0.8686 0.0000
vt 0.2002 0.8946 0.0000
vt 0.2028 0.9275 0.0000
vt 0.1385 0.8701 0.0000
vt 0.3474 0.7853 0.0000
vt 0.3309 0.7503 0.0000
vt 0.3829 0.7841 0.0000
vt 0.3104 0.8891 0.0000
vt 0.3363 0.8604 0.0000
vt 0.3565 0.8723 0.0000
vt 0.3245 0.9078 0.0000
vt 0.2170 0.7164 0.0000
vt 0.2050 0.6867 0.0000
vt 0.1550 0.8336 0.0000
vt 0.1322 0.8393 0.0000
vt 0.2754 0.9057 0.0000
vt 0.2798 0.9382 0.0000
vt 0.2657 0.7113 0.0000
vt 0.2626 0.6764 0.0000
vt 0.5013 0.2542 0.0000
vt 0.4527 0.2586 0.0000
vt 0.1531 0.7949 0.0000
vt 0.1357 0.7913 0.0000
vt 0.6684 0.3549 0.0000
vt 0.6559 0.3483 0.0000
vt 0.6622 0.3305 0.0000
vt 0.6758 0.3413 0.0000
vt 0.2367 0.9076 0.0000
vt 0.2345 0.9374 0.0000
vt 0.3022 0.7243 0.0000
vt 0.3494 0.8239 0.0000
vt 0.3747 0.8212 0.0000
vt 0.5015 0.2706 0.0000
vt 0.4560 0.2734 0.0000
vt 0.2693 0.7998 0.0000
vt 0.2509 0.8144 0.0000
vt 0.2034 0.7646 0.0000
vt 0.2221 0.7487 0.0000
vt 0.3102 0.8576 0.0000
vt 0.2914 0.8726 0.0000
vt 0.3762 0.6452 0.0000
vt 0.4053 0.6719 0.0000
vt 0.2951 0.1833 0.0000
vt 0.3314 0.2116 0.0000
vt 0.2579 0.2267 0.0000
vt 0.3526 0.1737 0.0000
vt 0.2183 0.2428 0.0000
vt 0.2183 0.2235 0.0000
vt 0.3404 0.1256 0.0000
vt 0.2892 0.1285 0.0000
vt 0.2440 0.1947 0.0000
vt 0.2100 0.2027 0.0000
vt 0.1998 0.1761 0.0000
vt 0.2177 0.1673 0.0000
vt 0.2617 0.1721 0.0000
vt 0.2626 0.1318 0.0000
vt 0.2291 0.1513 0.0000
vt 0.1860 0.1408 0.0000
vt 0.1928 0.1311 0.0000
vt 0.2323 0.1313 0.0000
vt 0.3979 0.6265 0.0000
vt 0.4207 0.6474 0.0000
vt 0.4150 0.6130 0.0000
vt 0.4276 0.6096 0.0000
vt 0.4353 0.6166 0.0000
vt 0.4330 0.6293 0.0000
vt 0.1848 0.1554 0.0000
vt 0.2059 0.1252 0.0000
vt 0.7474 0.1033 0.0000
vt 0.7297 0.0954 0.0000
vt 0.7563 0.0716 0.0000
vt 0.7661 0.0741 0.0000
vt 0.6752 0.1232 0.0000
vt 0.0516 0.6861 0.0000
vt 0.0359 0.7035 0.0000
vt 0.0108 0.6759 0.0000
vt 0.0185 0.6673 0.0000
vt 0.7054 0.1419 0.0000
vt 0.7060 0.1953 0.0000
vt 0.5891 0.0777 0.0000
vt 0.6232 0.0697 0.0000
vt 0.1625 0.6938 0.0000
vt 0.1238 0.6749 0.0000
vt 0.7559 0.1723 0.0000
vt 0.7536 0.1496 0.0000
vt 0.6586 0.0130 0.0000
vt 0.6691 0.0374 0.0000
vt 0.6615 0.0384 0.0000
vt 0.6481 0.0169 0.0000
vt 0.7751 0.0474 0.0000
vt 0.7617 0.0464 0.0000
vt 0.6745 0.0639 0.0000
vt 0.6593 0.0613 0.0000
vt 0.6380 0.0374 0.0000
vt 0.7799 0.1074 0.0000
vt 0.7924 0.0678 0.0000
vt 0.0904 0.6471 0.0000
vt 0.0774 0.6643 0.0000
vt 0.0697 0.6376 0.0000
vt 0.0765 0.6299 0.0000
vt 0.0935 0.6949 0.0000
vt 0.1061 0.6622 0.0000
vt 0.7177 0.1242 0.0000
vt 0.7588 0.1377 0.0000
vt 0.6314 0.0560 0.0000
vt 0.6585 0.0835 0.0000
vt 0.6886 0.0978 0.0000
vt 0.0698 0.7212 0.0000
vt 0.6971 0.0440 0.0000
vt 0.6852 0.0166 0.0000
vt 0.7234 0.0694 0.0000
vt 0.7757 0.2107 0.0000
vt 0.7305 0.2410 0.0000
vt 0.5657 0.1313 0.0000
vt 0.5680 0.0736 0.0000
vt 0.7023 0.0768 0.0000
vt 0.7005 0.0757 0.0000
vt 0.0848 0.5202 0.0000
vt 0.0947 0.5385 0.0000
vt 0.4277 0.9014 0.0000
vt 0.4433 0.8578 0.0000
vt 0.4593 0.8880 0.0000
vt 0.4489 0.9165 0.0000
vt 0.1373 0.4156 0.0000
vt 0.4076 0.8452 0.0000
vt 0.3888 0.8992 0.0000
vt 0.1007 0.5647 0.0000
vt 0.3582 0.9090 0.0000
vt 0.0272 0.4854 0.0000
vt 0.0375 0.5056 0.0000
vt 0.0153 0.5148 0.0000
vt 0.0089 0.5054 0.0000
vt 0.0586 0.4590 0.0000
vt 0.0673 0.4818 0.0000
vt 0.0628 0.5199 0.0000
vt 0.0385 0.5322 0.0000
vt 0.0228 0.4446 0.0000
vt -0.0008 0.4780 0.0000
vt -0.0065 0.5121 0.0000
vt 0.0117 0.5323 0.0000
vt 0.4814 0.9017 0.0000
vt 0.4745 0.9204 0.0000
vt 0.1176 0.9167 0.0000
vt 0.1591 0.9543 0.0000
vt 0.1331 0.9778 0.0000
vt 0.0977 0.9457 0.0000
vt 0.8587 0.4757 0.0000
vt 0.9456 0.3753 0.0000
vt 0.9463 0.4204 0.0000
vt 0.9473 0.4800 0.0000
vt 0.9507 0.4552 0.0000
vt 0.9929 0.4673 0.0000
vt 0.9888 0.4873 0.0000
vt 0.9742 0.4398 0.0000
vt 0.9611 0.5056 0.0000
vt 0.1111 0.9853 0.0000
vt 0.1027 0.9889 0.0000
vt 0.0886 0.9765 0.0000
vt 0.0920 0.9680 0.0000
vt 0.9935 0.4574 0.0000
vt 0.9860 0.4969 0.0000
vt 0.7958 0.7761 0.0000
vt 0.8633 0.8538 0.0000
vt 0.7609 0.8469 0.0000
vt 0.7714 0.8080 0.0000
vt 0.7861 0.9247 0.0000
vt 0.7658 0.8875 0.0000
vt 0.8570 0.9592 0.0000
vt 0.8182 0.9490 0.0000
vt 0.9315 0.9313 0.0000
vt 0.8968 0.9516 0.0000
vt 0.9660 0.8603 0.0000
vt 0.9558 0.8993 0.0000
vt 0.9410 0.7860 0.0000
vt 0.9609 0.8206 0.0000
vt 0.8704 0.7509 0.0000
vt 0.9092 0.7614 0.0000
vt 0.8306 0.7561 0.0000
vt 0.6681 0.7029 0.0000
vt 0.6371 0.6805 0.0000
vt 0.6631 0.6320 0.0000
vt 0.7099 0.6720 0.0000
vt 0.5171 0.8272 0.0000
vt 0.5441 0.8530 0.0000
vt 0.5230 0.8943 0.0000
vt 0.4802 0.8583 0.0000
vt 0.6013 0.6715 0.0000
vt 0.6061 0.6138 0.0000
vt 0.5811 0.8668 0.0000
vt 0.5768 0.9112 0.0000
vt 0.5653 0.6771 0.0000
vt 0.5476 0.6199 0.0000
vt 0.6220 0.8656 0.0000
vt 0.6335 0.9071 0.0000
vt 0.5329 0.6938 0.0000
vt 0.4963 0.6475 0.0000
vt 0.6575 0.8460 0.0000
vt 0.6831 0.8141 0.0000
vt 0.7216 0.8383 0.0000
vt 0.6842 0.8810 0.0000
vt 0.5099 0.7218 0.0000
vt 0.4596 0.6933 0.0000
vt 0.6941 0.7756 0.0000
vt 0.7409 0.7846 0.0000
vt 0.4992 0.7570 0.0000
vt 0.4441 0.7502 0.0000
vt 0.6897 0.7375 0.0000
vt 0.7382 0.7266 0.0000
vt 0.5030 0.7947 0.0000
vt 0.4524 0.8087 0.0000
# 395 texture coords

o Pien
g Pien
usemtl wire_204204204
s off
f 1/1/1 2/2/1 3/3/1 4/4/1 
f 5/5/2 6/6/2 7/7/2 8/8/2 
f 6/6/3 9/9/3 10/10/3 7/7/3 
f 9/9/4 11/11/4 12/12/4 10/10/4 
f 11/13/5 13/14/5 14/15/5 15/16/5 
f 13/14/6 16/17/6 17/18/6 14/15/6 
f 16/17/7 18/19/7 19/20/7 17/18/7 
f 18/19/8 20/21/8 21/22/8 19/20/8 
f 20/21/9 22/23/9 23/24/9 24/25/9 
f 22/23/10 25/26/10 26/27/10 27/28/10 
f 25/26/11 28/29/11 29/30/11 26/27/11 
f 28/29/12 30/31/12 31/32/12 29/30/12 
f 30/31/13 32/33/13 33/34/13 31/32/13 
f 32/33/14 34/35/14 35/36/14 33/34/15 
f 34/35/16 36/37/16 37/38/16 38/39/16 
f 39/40/17 1/1/17 4/4/17 40/41/17 
f 41/42/18 42/43/18 43/44/18 44/45/18 
f 44/45/19 43/44/19 45/46/19 36/37/19 
f 46/47/20 41/42/20 44/45/20 47/48/20 
f 47/48/21 44/45/21 36/37/22 34/35/22 
f 48/49/23 46/47/23 47/48/23 49/50/23 
f 49/50/24 47/48/24 34/35/24 32/33/24 
f 50/51/25 48/49/25 49/50/25 51/52/26 
f 51/52/27 49/50/27 32/33/27 30/31/27 
f 52/53/28 50/51/28 51/52/28 53/54/28 
f 53/54/29 51/52/29 30/31/29 28/29/29 
f 54/55/30 52/53/30 53/54/30 55/56/30 
f 55/56/31 53/54/31 28/29/31 25/26/31 
f 56/57/32 54/55/32 55/56/32 57/58/32 
f 57/58/33 55/56/33 25/26/33 22/23/33 
f 58/59/34 56/57/34 57/58/34 59/60/34 
f 59/60/35 57/58/35 22/23/35 20/21/35 
f 60/61/36 58/59/36 59/60/36 61/62/36 
f 61/62/37 59/60/37 20/21/37 18/19/37 
f 62/63/38 60/61/39 61/62/39 63/64/38 
f 63/64/40 61/62/40 18/19/40 16/17/40 
f 64/65/41 62/63/41 63/64/41 65/66/41 
f 65/66/42 63/64/42 16/17/42 13/14/42 
f 66/67/43 64/65/43 65/66/43 67/68/43 
f 67/68/44 65/66/44 13/14/44 11/13/44 
f 68/69/45 66/70/45 67/71/45 69/72/45 
f 69/72/46 67/71/46 11/11/46 9/9/46 
f 70/73/47 68/69/47 69/72/47 71/74/47 
f 71/74/48 69/72/48 9/9/48 6/6/48 
f 72/75/49 70/73/49 71/74/50 73/76/50 
f 73/76/51 71/74/51 6/6/51 5/5/51 
f 42/43/52 72/75/52 73/76/52 43/44/52 
f 43/44/53 73/76/53 5/5/53 45/46/53 
f 74/77/54 75/78/54 76/79/54 77/80/54 
f 78/81/55 79/82/56 80/83/56 81/84/56 
f 81/84/57 80/83/57 82/85/58 83/86/59 
f 83/86/60 82/85/60 84/87/60 85/88/60 
f 85/89/61 86/90/62 87/91/62 88/92/61 
f 88/92/63 87/91/63 89/93/63 90/94/63 
f 90/94/64 89/93/64 91/95/64 92/96/64 
f 92/96/65 91/95/65 93/97/65 94/98/65 
f 94/98/66 95/99/66 96/100/66 97/101/66 
f 97/101/67 98/102/68 99/103/67 100/104/67 
f 100/104/69 99/103/69 101/105/69 102/106/69 
f 102/106/70 101/105/70 103/107/70 104/108/70 
f 104/108/71 103/107/71 105/109/71 106/110/71 
f 106/110/72 105/109/72 107/111/72 108/112/72 
f 108/112/73 109/113/73 110/114/73 111/115/73 
f 112/116/74 113/117/74 75/78/74 74/77/74 
f 114/118/75 115/119/75 116/120/75 117/121/75 
f 115/119/76 111/115/76 118/122/76 116/120/76 
f 114/123/77 119/124/77 120/125/77 121/126/77 
f 111/115/78 115/127/78 122/128/78 
f 123/129/79 124/130/79 125/131/79 119/132/79 
f 124/130/80 106/110/80 108/112/80 125/131/80 
f 126/133/81 127/134/81 124/130/81 123/129/81 
f 127/134/82 104/108/82 106/110/82 124/130/82 
f 128/135/83 129/136/84 127/134/83 126/133/84 
f 129/136/85 102/106/85 104/108/85 127/134/85 
f 130/137/86 131/138/86 132/139/86 133/140/86 
f 131/138/87 134/141/87 135/142/87 132/139/87 
f 136/143/88 130/137/88 133/140/88 137/144/88 
f 138/145/89 139/146/89 140/147/89 141/148/89 
f 142/149/90 143/150/90 144/151/90 145/152/90 
f 143/150/91 94/98/91 97/101/91 144/151/91 
f 146/153/92 147/154/92 143/150/92 142/149/92 
f 147/154/93 92/96/93 94/98/93 143/150/93 
f 148/155/94 149/156/95 150/157/94 151/158/94 
f 92/96/96 147/159/96 152/160/96 153/161/96 
f 154/162/97 155/163/97 149/164/97 148/165/97 
f 155/163/98 88/92/98 90/94/98 149/164/98 
f 156/166/99 157/167/99 155/163/99 154/162/99 
f 157/167/100 85/89/100 88/92/100 155/163/100 
f 158/168/101 159/169/101 157/170/101 156/171/101 
f 159/169/102 83/86/102 85/88/102 157/170/102 
f 160/172/103 161/173/103 162/174/103 
f 160/172/104 81/84/105 83/86/104 159/169/105 
f 81/84/106 160/172/106 163/175/106 
f 164/176/107 165/177/107 166/178/107 167/179/107 
f 117/121/108 116/120/109 165/180/109 164/181/109 
f 116/120/110 118/122/110 78/81/110 165/180/110 
f 52/182/111 54/183/111 168/184/111 128/185/111 
f 5/5/112 8/8/112 79/82/112 78/81/112 
f 26/27/113 29/30/113 101/105/113 99/103/113 
f 60/186/114 62/187/114 148/188/114 146/189/114 
f 42/190/115 41/191/115 114/123/115 117/192/115 
f 17/18/116 19/20/116 91/95/116 89/93/117 
f 36/37/118 111/115/118 110/114/118 37/38/118 
f 68/193/119 70/194/120 169/195/119 158/196/120 
f 50/197/121 52/182/121 128/185/121 126/198/121 
f 7/7/122 10/10/122 82/85/122 80/83/122 
f 29/30/123 31/32/123 103/107/123 101/105/123 
f 58/199/124 60/186/124 146/189/124 142/200/124 
f 19/20/125 21/22/125 93/97/125 91/95/125 
f 66/201/126 68/193/126 158/196/126 156/202/126 
f 48/203/127 50/197/127 126/198/127 123/204/127 
f 10/10/128 12/12/128 84/87/128 82/85/128 
f 105/109/129 103/107/129 170/205/129 171/206/129 
f 56/207/130 58/199/130 142/200/130 145/208/130 
f 172/209/131 173/210/131 174/211/131 175/212/131 
f 64/213/132 66/201/132 156/202/132 154/214/132 
f 46/215/133 48/203/133 123/204/133 119/124/133 
f 72/216/134 42/190/134 117/192/134 164/217/134 
f 2/2/135 77/80/135 76/79/136 3/3/135 
f 33/34/137 35/36/137 107/111/137 105/109/137 
f 4/4/138 3/3/138 76/79/138 75/78/138 
f 54/183/139 56/207/139 145/208/139 168/184/139 
f 27/28/140 26/27/140 99/103/141 98/102/141 
f 62/187/142 64/213/142 154/214/142 148/188/142 
f 41/191/143 46/215/143 119/124/143 114/123/143 
f 14/15/144 17/18/144 89/93/144 87/91/144 
f 108/112/145 107/111/145 35/36/145 34/35/145 
f 70/194/146 72/216/146 164/217/146 169/195/146 
f 176/218/147 177/219/147 171/206/147 170/205/148 
f 31/32/149 33/34/149 177/219/149 176/218/149 
f 33/34/150 105/109/151 171/206/151 177/219/151 
f 103/107/152 31/32/153 176/218/153 170/205/153 
f 109/113/154 38/39/154 37/38/154 110/114/154 
f 108/112/155 34/35/155 38/39/155 109/113/155 
f 79/82/156 8/8/156 7/7/156 80/83/156 
f 11/220/157 85/221/157 84/222/157 12/223/157 
f 113/117/158 40/41/158 4/4/158 75/78/158 
f 39/40/159 40/41/159 113/117/159 112/116/159 
f 86/90/160 15/16/160 14/15/160 87/91/160 
f 85/221/161 11/220/161 15/224/161 86/225/161 
f 22/23/162 97/101/163 96/100/162 23/24/162 
f 22/23/164 27/28/164 98/102/165 97/101/164 
f 20/21/166 24/25/166 95/99/166 94/98/166 
f 20/21/167 94/98/167 93/97/167 21/22/167 
f 24/25/168 23/24/168 173/210/168 172/209/168 
f 96/100/169 95/99/169 175/212/169 174/211/169 
f 95/99/170 24/25/170 172/209/170 175/212/170 
f 23/24/171 96/100/171 174/211/171 173/210/171 
f 36/37/172 39/40/172 112/116/172 111/115/172 
f 5/5/173 78/81/173 77/80/173 2/2/173 
f 111/115/174 112/116/174 74/77/174 118/122/174 
f 118/122/175 74/77/175 77/80/175 78/81/175 
f 36/37/176 45/46/176 1/1/176 39/40/176 
f 45/46/177 5/5/177 2/2/177 1/1/177 
f 121/126/178 120/125/179 178/226/179 179/227/178 
f 180/228/180 181/229/180 122/128/180 182/230/180 
f 125/231/181 181/229/181 180/228/181 
f 115/127/182 114/232/182 121/233/182 182/230/183 
f 119/234/184 125/231/184 180/228/184 120/235/184 
f 108/112/185 111/115/185 122/128/185 181/229/185 
f 183/236/186 179/237/186 184/238/186 185/239/186 
f 182/230/187 121/233/187 179/237/187 183/236/187 
f 120/235/188 180/228/188 186/240/188 178/241/188 
f 180/228/189 182/230/189 183/236/190 186/240/189 
f 187/242/191 185/239/191 188/243/191 189/244/191 
f 178/241/192 186/240/192 187/242/192 190/245/193 
f 186/240/194 183/236/194 185/239/194 187/242/194 
f 179/227/195 178/226/195 190/246/195 184/247/195 
f 191/248/196 189/249/196 188/250/196 192/251/196 
f 184/247/197 190/246/197 191/248/197 192/251/197 
f 185/239/198 184/238/199 192/252/198 188/243/198 
f 190/245/200 187/242/200 189/244/201 191/253/200 
f 122/128/202 115/127/202 182/230/202 
f 181/229/203 125/231/203 108/112/203 
f 193/254/204 194/255/204 195/256/204 196/257/204 
f 197/258/205 133/140/205 132/139/205 135/142/205 
f 198/259/206 199/260/206 200/261/206 201/262/206 
f 202/263/207 137/144/208 133/140/207 197/258/207 
f 203/264/209 136/143/209 137/144/209 202/263/209 
f 134/141/210 204/265/210 205/266/210 135/142/210 
f 204/267/211 138/145/212 141/148/211 205/268/211 
f 139/269/213 203/264/214 202/263/213 140/270/214 
f 206/271/215 207/272/215 208/273/215 209/274/215 
f 200/275/216 196/257/216 195/256/216 201/276/216 
f 210/277/217 211/278/218 208/273/218 207/272/218 
f 211/278/219 212/279/219 209/274/219 208/273/219 
f 199/280/220 193/254/220 196/257/220 200/281/220 
f 212/282/221 213/283/221 206/284/221 209/285/221 
f 205/268/222 141/148/222 214/286/222 215/287/222 
f 140/270/223 202/263/223 216/288/223 217/289/223 
f 135/142/224 205/266/225 215/290/225 218/291/225 
f 197/258/226 135/142/226 218/291/227 219/292/226 
f 141/148/228 140/147/228 217/293/228 214/286/228 
f 202/263/229 197/258/230 219/292/230 216/288/229 
f 213/294/231 210/277/231 207/272/231 206/295/231 
f 198/296/232 201/276/233 195/256/232 194/255/232 
f 145/297/234 144/298/234 203/264/234 139/269/234 
f 128/185/235 168/184/235 138/145/235 204/267/235 
f 129/299/236 128/300/236 204/265/236 134/141/236 
f 144/298/237 97/101/238 136/143/237 203/264/239 
f 168/184/240 145/208/240 139/146/240 138/145/240 
f 97/101/241 100/104/241 130/137/241 136/143/241 
f 102/106/242 129/299/242 134/141/242 131/138/242 
f 100/104/243 102/106/243 131/138/244 130/137/244 
f 214/301/245 198/296/245 194/255/245 219/292/245 
f 217/289/246 216/288/246 193/254/246 199/280/246 
f 214/286/247 217/293/247 199/260/247 198/259/247 
f 216/288/248 219/292/248 194/255/248 193/254/248 
f 214/302/249 219/292/249 210/277/249 213/294/249 
f 215/287/250 214/286/250 213/283/250 212/282/250 
f 218/291/251 215/290/251 212/279/251 211/278/251 
f 219/292/252 218/291/252 211/278/252 210/277/252 
f 220/303/253 162/174/253 161/173/253 221/304/253 
f 222/305/254 223/306/254 224/307/255 225/308/254 
f 166/178/256 226/309/256 163/175/256 162/174/256 
f 165/177/257 226/309/257 166/178/257 
f 169/195/258 164/217/258 167/310/258 220/311/258 
f 78/81/259 81/84/259 163/175/259 226/309/259 
f 159/169/260 158/312/260 221/304/260 161/173/260 
f 158/196/261 169/195/261 220/311/261 221/313/261 
f 227/314/262 228/315/262 229/316/262 230/317/262 
f 231/318/263 232/319/264 228/315/264 227/314/264 
f 232/319/265 222/320/266 225/321/266 228/315/266 
f 223/322/267 231/318/267 227/314/267 224/323/267 
f 167/179/268 166/178/268 231/318/268 223/322/268 
f 162/174/269 220/303/269 222/320/269 232/319/269 
f 166/178/270 162/174/270 232/319/270 231/318/270 
f 220/311/271 167/310/272 223/306/271 222/305/271 
f 233/324/273 230/317/273 229/316/273 234/325/273 
f 225/308/274 224/307/275 233/326/274 234/327/274 
f 228/315/276 225/321/276 234/325/276 229/316/276 
f 224/323/277 227/314/277 230/317/277 233/324/277 
f 226/309/278 165/177/278 78/81/279 
f 161/173/280 160/172/280 159/169/281 
f 163/175/282 160/172/282 162/174/282 
f 235/328/283 151/329/283 236/330/283 237/331/283 
f 150/157/284 238/332/284 153/161/284 152/160/284 
f 149/156/285 90/94/285 238/332/285 150/157/285 
f 90/94/286 92/96/286 153/161/286 238/332/286 
f 147/159/287 146/333/287 235/334/287 152/160/287 
f 146/189/288 148/188/289 151/329/288 235/328/289 
f 239/335/290 240/336/290 241/337/291 242/338/291 
f 152/160/292 235/334/292 237/339/292 240/336/292 
f 151/158/293 150/157/293 239/335/293 236/340/293 
f 150/157/294 152/160/294 240/336/294 239/335/294 
f 243/341/295 242/342/295 241/343/295 244/344/295 
f 237/331/296 236/330/296 243/341/296 244/344/296 
f 240/336/297 237/339/298 244/345/297 241/337/297 
f 236/340/299 239/335/299 242/338/299 243/346/299 
f 245/347/300 246/348/300 247/349/300 248/350/300 
f 247/349/301 246/348/301 249/351/301 250/352/301 
f 249/351/302 246/348/302 251/353/302 252/354/302 
f 251/353/303 246/348/303 253/355/303 254/356/303 
f 253/355/304 246/348/304 255/357/304 256/358/304 
f 255/357/305 246/348/305 257/359/305 258/360/305 
f 257/359/306 246/348/306 259/361/306 260/362/306 
f 259/361/307 246/348/307 245/347/307 261/363/307 
f 250/364/308 249/365/308 262/366/308 263/367/308 
f 258/368/309 257/369/309 264/370/309 265/371/309 
f 249/365/310 252/372/310 266/373/310 262/366/310 
f 257/369/311 260/374/311 267/375/311 264/370/311 
f 252/372/312 251/376/312 268/377/312 266/373/312 
f 260/374/313 259/378/313 269/379/313 267/375/313 
f 251/376/314 254/380/314 270/381/314 268/377/314 
f 261/382/315 245/383/316 271/384/315 272/385/316 
f 259/378/317 261/382/317 272/385/317 269/379/317 
f 254/380/318 253/386/318 273/387/318 270/381/318 
f 245/383/319 248/388/319 274/389/319 271/384/319 
f 253/386/320 256/390/320 275/391/321 273/387/321 
f 248/388/322 247/392/322 276/393/322 274/389/322 
f 256/390/323 255/394/323 277/395/323 275/391/323 
f 247/392/324 250/364/324 263/367/324 276/393/324 
f 255/394/325 258/368/325 265/371/325 277/395/325 
# 263 polygons - 10 triangles

