# Apple ModelIO OBJ File: kamulec2uv
mtllib kamulec2uv.mtl
g kamień_1
v -1 0.091739 0
v -0.973453 0.726541 0.00352
v -0.896895 -0.144934 -0.821296
v -0.766661 0.597841 -0.703016
v -0.125374 0.983044 -0.793098
v -0.219427 1.32109 -0.246278
v -0.00309 1.12486 -0.735488
v -0.01024 1.37785 -0.267896
v 0 -1.03246 0
v 1.23846 -1.03524 0.14331
v 1.19265 -1.01449 0.875733
v 0.044458 -1.01066 1.32967
v 0 -1.03246 -1.10094
v 1.23053 -1.0012 -0.85524
v 0.044458 0.21471 1.31568
v 0.224281 1.57616 1.06727
v -1 0.438714 1
v -0.953698 1.00751 0.955453
v 0.817604 -0.153832 -0.758945
v 0.603669 1.01588 -0.733515
v 1 -0.136672 0.086668
v 0.788095 1.29535 0.001527
v 0.035387 1.72093 0.060595
v -0.203533 1.69629 0.011456
v -0.80653 -1.03246 0
v -0.560709 -1.01267 1.18597
v 0.742837 1.29535 0.485027
v 0.547091 1.3704 0.869443
v 0.716612 0.243735 0.921519
v -0.929245 -0.783413 -1.03547
v 0 -0.354308 -1.10094
v -0.475658 -1.03246 -1.10094
v 1.1323 -0.524926 0.918003
v 0.044458 -0.134908 1.47941
v 1.07103 -0.027904 0.960917
v -1.28502 -0.403802 1.01399
v -1.28502 0.086292 1.01399
v -1.28502 -0.156041 0
v -1.28502 -0.607419 0
v 1.20724 -0.424647 -0.835431
v 1.2597 -0.492107 -0.729044
v 1.30294 -1.01733 -0.707213
v -0.929245 -0.400509 -1.03547
v 0.03097 -0.163777 -0.979131
v 0.973201 0.150561 0.920765
v 1.20314 -0.517565 -0.039461
v 1.07627 -0.248382 0.488881
v 0.24351 1.01088 -0.864154
v 0.006902 0.98849 -0.860462
v 0.141447 1.50612 0.595688
v -1.10094 -0.922391 -0.754247
v -0.632527 1.63085 0.172156
v -0.506251 1.77014 0.638742
v -0.276739 1.83871 0.743345
v 0.075185 1.82372 0.664016
v -0.958848 -1.03246 -0.673793
v -0.028807 1.81936 0.856928
v 0.104094 1.79164 0.909936
v -0.410159 1.1707 -0.183091
v -0.196194 0.900911 -0.826463
v 1.6093 -1.00723 -0.48647
v 1.50609 -0.561356 -0.616428
v 1.61093 -1.02813 -0.204213
v 1.58886 -0.762439 -0.209662
v 1.47565 -0.584979 -0.091042
v 1.47614 -1.0222 -0.05901
v 0.002345 0.884811 -0.95424
vn -0.9652 0.1299 -0.2268
vn -0.4084 0.7704 -0.4896
vn -0.0001 -0.9998 0.0206
vn 0.0141 -0.9998 -0.0163
vn -0.2116 0.1708 0.9623
vn 0.9564 0.1508 -0.2502
vn -0.0679 0.6343 -0.7701
vn -0.0003 -0.9999 0.0166
vn -0.9981 0.0601 -0.0092
vn 0.8923 0.1539 0.4243
vn -0.0592 0.0415 -0.9974
vn 0.4101 -0.0877 0.9078
vn -1 -0 -0
vn 0.9033 0.0537 -0.4257
vn 0.2055 0.0193 -0.9785
vn -0.1036 0.6077 -0.7874
vn 0.382 0.3936 0.8362
vn -0.7132 0.6728 -0.1969
vn 0.7314 0.6802 -0.048
vn -0.2391 0.3284 0.9138
vn 0.9216 0.3688 -0.1208
vn 0.2167 0.5228 -0.8244
vn -0.7261 0.6004 -0.335
vn -0.075 0.6707 -0.7379
vn 0.2871 0.7861 0.5474
vn 0.9711 0.1164 0.2085
vn 0.2157 0.9703 -0.1094
vn -0.9341 0.1099 -0.3396
vn -0.9046 0.4249 -0.0328
vn -0.0253 0.9831 -0.1812
vn -0.2123 0.9533 -0.2147
vn -0.4257 -0.7286 -0.5365
vn -0.2972 -0.0866 0.9509
vn -0 -1 -0
vn -0.6568 -0.7393 0.1485
vn 0.0914 0.9932 0.0717
vn -0.5284 0.3439 -0.7762
vn -0.3432 0.4848 0.8045
vn -0.613 0.628 -0.4794
vn -0.3247 0.4024 0.8559
vn 0.5218 0.1001 0.8471
vn 0.325 0.8974 -0.2986
vn 0.9395 0.3015 -0.1623
vn 0.9847 0.1602 -0.069
vn 0.8621 0.5015 0.0725
vn 0.7476 0.0593 0.6616
vn -0.1217 -0.9899 -0.0726
vn 0.4534 0.2118 0.8658
vn 0.7177 0.6912 0.0844
vn 0.5111 -0.057 -0.8576
vn -0.0139 -0.9997 -0.0221
vn 0.248 0.9671 0.0568
vn 0.8772 0.4789 -0.0333
vn 0.9908 0.1263 -0.048
vn 0.9923 0.1037 0.0677
vn 0.9496 0.305 0.0726
vn 0.0475 -0.9987 -0.0202
vn -0.9457 -0 -0.3249
vn -0.0703 -0 -0.9975
vn -0.2594 0.116 -0.9588
vn 0.2985 0.0532 -0.9529
vn 0.198 0.8831 -0.4255
vn -0.3827 0.6224 -0.6827
vn -0.3795 0.6098 -0.6958
vn -0.4389 0.4586 -0.7727
vn -0.5786 0.7155 -0.3916
vn 0.379 0.9193 -0.1058
vn 0.982 0.1189 -0.1469
vt 0.38472 0.520431
vt 0.360757 0.477346
vt 0.468707 0.479927
vt 0.404186 0.449375
vt 0.378195 0.40624
vt 0.347552 0.425504
vt 0.367541 0.40209
vt 0.342089 0.415196
vt 0.774754 0.158051
vt 0.933355 0.21171
vt 0.906723 0.306629
vt 0.743188 0.333935
vt 0.80568 0.013466
vt 0.960424 0.080296
vt 0.208678 0.459825
vt 0.295571 0.430298
vt 0.29527 0.507983
vt 0.306796 0.471296
vt 0.401423 0.252781
vt 0.353129 0.370265
vt 0.258745 0.257312
vt 0.316009 0.384424
vt 0.324924 0.425045
vt 0.32912 0.430686
vt 0.668837 0.135381
vt 0.667767 0.298048
vt 0.296954 0.395417
vt 0.288954 0.413759
vt 0.211805 0.377628
vt 0.573444 0.517087
vt 0.510546 0.349124
vt 0.667558 0.45176
vt 0.662459 0.315283
vt 0.000104 0.571016
vt 0.000104 0.245802
vt 0.101488 0.304596
vt 0.164859 0.48168
vt 0.17274 0.345864
vt 0.285094 0.600441
vt 0.296603 0.547331
vt 0.39564 0.55949
vt 0.421908 0.616219
vt 0.476648 0.064872
vt 0.412542 0.172861
vt 0.39385 0.156033
vt 0.446488 0.043014
vt 0.510512 0.486838
vt 0.475985 0.354574
vt 0.194416 0.35548
vt 0.243547 0.168514
vt 0.196483 0.279658
vt 0.369794 0.384362
vt 0.376725 0.397327
vt 0.308023 0.419177
vt 0.557301 0.573281
vt 0.32922 0.444744
vt 0.315476 0.443741
vt 0.310586 0.438725
vt 0.309919 0.429516
vt 0.594841 0.607923
vt 0.115852 0.714581
vt 0.743219 0.000104
vt 0.667767 0.04262
vt 0.46195 0.755939
vt 0.306277 0.433499
vt 0.303973 0.430868
vt 0.35413 0.436199
vt 0.384959 0.40881
vt 0.349034 0.00096
vt 0.358628 0.109824
vt 0.265482 0.000104
vt 0.281743 0.065666
vt 0.264112 0.109838
vt 0.209794 0.02272
vt 0.970305 0.191845
vt 0.999896 0.13947
vt 0.992185 0.176687
vt 0.1298 0.077838
vt 0.965866 0.101854
vt 0.384051 0.394199
usemtl 
f 1/1/1 2/2/1 3/3/1
f 2/2/1 4/4/1 3/3/1
f 5/5/2 6/6/2 7/7/2
f 6/6/2 8/8/2 7/7/2
f 9/9/3 10/10/3 11/11/3
f 9/9/3 11/11/3 12/12/3
f 13/13/4 14/14/4 9/9/4
f 14/14/4 10/10/4 9/9/4
f 15/15/5 16/16/5 17/17/5
f 16/16/5 18/18/5 17/17/5
f 19/19/6 20/20/6 21/21/6
f 20/20/6 22/22/6 21/21/6
f 8/8/7 6/6/7 23/23/7
f 6/6/7 24/24/7 23/23/7
f 25/25/8 9/9/8 26/26/8
f 9/9/8 12/12/8 26/26/8
f 17/17/9 18/18/9 1/1/9
f 18/18/9 2/2/9 1/1/9
f 27/27/10 28/28/10 29/29/10
f 30/30/11 31/31/11 32/32/11
f 31/31/11 13/33/11 32/32/11
f 12/34/12 11/35/12 33/36/12
f 34/37/12 12/34/12 33/36/12
f 35/38/12 34/37/12 33/36/12
f 36/39/13 37/40/13 38/41/13
f 36/39/13 38/41/13 39/42/13
f 14/43/14 40/44/14 41/45/14
f 14/43/14 41/45/14 42/46/14
f 13/33/15 31/31/15 40/44/15
f 13/33/15 40/44/15 14/43/15
f 43/47/16 3/3/16 31/31/16
f 3/3/16 44/48/16 31/31/16
f 35/38/17 45/49/17 34/37/17
f 45/49/17 15/15/17 34/37/17
f 37/40/18 17/17/18 38/41/18
f 17/17/18 1/1/18 38/41/18
f 40/44/19 19/19/19 46/50/19
f 19/19/19 21/21/19 46/50/19
f 34/37/20 15/15/20 37/40/20
f 15/15/20 17/17/20 37/40/20
f 47/51/21 21/21/21 35/38/21
f 21/21/21 45/49/21 35/38/21
f 31/31/22 44/48/22 40/44/22
f 44/48/22 19/19/22 40/44/22
f 38/41/23 1/1/23 3/3/23
f 38/41/23 3/3/23 43/47/23
f 7/7/24 48/52/24 49/53/24
f 45/49/25 29/29/25 15/15/25
f 21/21/26 22/22/26 27/27/26
f 21/21/26 27/27/26 29/29/26
f 22/22/27 8/8/27 27/27/27
f 8/8/27 50/54/27 27/27/27
f 39/42/28 38/41/28 51/55/28
f 38/41/28 30/30/28 51/55/28
f 2/2/29 18/18/29 52/56/29
f 18/18/29 53/57/29 52/56/29
f 54/58/30 55/59/30 23/23/30
f 54/58/30 23/23/30 24/24/30
f 24/24/31 52/56/31 53/57/31
f 24/24/31 53/57/31 54/58/31
f 30/30/32 32/32/32 51/55/32
f 32/32/32 56/60/32 51/55/32
f 26/61/33 12/34/33 34/37/33
f 36/39/33 26/61/33 34/37/33
f 37/40/33 36/39/33 34/37/33
f 32/62/34 25/25/34 56/63/34
f 51/55/35 56/60/35 39/42/35
f 56/60/35 25/64/35 39/42/35
f 55/59/36 54/58/36 57/65/36
f 55/59/36 57/65/36 58/66/36
f 52/56/37 59/67/37 2/2/37
f 18/18/38 16/16/38 54/58/38
f 18/18/38 54/58/38 53/57/38
f 6/6/39 5/5/39 59/67/39
f 5/5/39 60/68/39 59/67/39
f 25/25/34 32/62/34 13/13/34
f 25/25/34 13/13/34 9/9/34
f 54/58/40 16/16/40 57/65/40
f 16/16/40 58/66/40 57/65/40
f 15/15/41 29/29/41 28/28/41
f 15/15/41 28/28/41 16/16/41
f 39/42/35 25/64/35 26/61/35
f 39/42/35 26/61/35 36/39/35
f 29/29/42 45/49/42 21/21/42
f 16/16/43 50/54/43 58/66/43
f 50/54/43 55/59/43 58/66/43
f 61/69/44 62/70/44 63/71/44
f 62/70/44 64/72/44 63/71/44
f 62/70/45 65/73/45 64/72/45
f 65/73/46 66/74/46 64/72/46
f 66/74/46 63/71/46 64/72/46
f 66/75/47 61/76/47 63/77/47
f 46/50/48 10/78/48 65/73/48
f 10/78/48 66/74/48 65/73/48
f 40/44/49 46/50/49 41/45/49
f 42/46/50 41/45/50 62/70/50
f 42/46/50 62/70/50 61/69/50
f 10/10/51 14/14/51 42/79/51
f 10/10/51 42/79/51 66/75/51
f 41/45/52 46/50/52 62/70/52
f 46/50/52 65/73/52 62/70/52
f 46/50/53 21/21/53 47/51/53
f 35/38/54 33/36/54 47/51/54
f 33/36/55 11/35/55 46/50/55
f 11/35/55 10/78/55 46/50/55
f 33/36/56 46/50/56 47/51/56
f 66/75/57 42/79/57 61/76/57
f 30/30/58 38/41/58 43/47/58
f 31/31/59 30/30/59 43/47/59
f 49/53/24 48/52/24 67/80/24
f 44/48/60 3/3/60 4/4/60
f 67/80/60 44/48/60 4/4/60
f 60/68/60 67/80/60 4/4/60
f 19/19/61 44/48/61 67/80/61
f 20/20/61 19/19/61 67/80/61
f 48/52/61 20/20/61 67/80/61
f 22/22/62 20/20/62 48/52/62
f 8/8/62 22/22/62 48/52/62
f 7/7/62 8/8/62 48/52/62
f 67/80/63 60/68/63 5/5/63
f 67/80/63 5/5/63 49/53/63
f 5/5/64 7/7/64 49/53/64
f 24/24/65 6/6/65 52/56/65
f 6/6/65 59/67/65 52/56/65
f 59/67/66 60/68/66 4/4/66
f 59/67/66 4/4/66 2/2/66
f 27/27/67 50/54/67 28/28/67
f 50/54/67 16/16/67 28/28/67
f 50/54/68 8/8/68 23/23/68
f 50/54/68 23/23/68 55/59/68
s off
