# Apple ModelIO OBJ File: kamulec1uv
mtllib kamulec1uv.mtl
g Kamień_2
v 0.437865 0.149299 -0.708399
v 0.226105 -0.02421 -1.05967
v -0.202686 0.125137 -0.694148
v -0.209863 0.193994 0.039943
v -0.541235 0.131899 -0.568466
v -0.77397 0.091235 0.02012
v 0.378374 -0.291039 -1.0326
v 0.603229 0.095122 0.618004
v 0.598883 -0.291039 1.0326
v 0.83873 -0.291039 0.612238
v -1.03235 -0.289306 -0.020595
v -0.825817 -0.256916 -0.686133
v -0.49283 -0.290652 -0.565087
v -0.023409 -0.281794 -0.981792
v 0.83873 -0.291039 -0.298883
v 0.626053 0.102811 -0.242565
v 0.83873 -0.291039 0.443012
v 0.605073 0.112961 0.393347
v 0.101883 -0.290811 -0.198947
v -0.828465 -0.12005 0.883858
v -0.865021 -0.279784 0.787292
v -0.264602 -0.290474 1.0326
v -0.229151 0.083907 0.706879
v -0.674948 0.080808 0.688031
v -0.646685 0.09497 0.389741
v -0.222565 0.189137 0.547509
vn -0.0435 0.9059 -0.4212
vn -0.1104 0.993 -0.0412
vn 0.717 0.3479 -0.6041
vn 0.7699 0.463 0.4393
vn -0.0709 -0.9941 -0.0821
vn 0.8727 0.4881 0.0097
vn -0.2954 0.4644 -0.8349
vn -0.0061 -0.9999 -0.0105
vn -0.3488 -0.4251 0.8352
vn 0.0332 0.6962 0.717
vn -0.0091 -0.9999 0.0055
vn -0.8913 0.4312 -0.1403
vn -0.0291 0.8347 0.5499
vn 0.0997 0.995 -0.0017
vn -0.0004 -1 0.0001
vn 0.8589 0.5115 0.0272
vn -0.0004 -1 0.0002
vn -0.0003 -1 0.0001
vn -0.011 0.6736 0.739
vn 0.0819 0.9486 0.3058
vn -0.7706 0.5923 -0.2354
vn -0.2001 0.9794 0.0274
vn -0.4225 0.1385 -0.8957
vn 0.8294 0.3507 -0.4348
vn -0.0007 -1 -0.0004
vn -0.2255 0.9739 0.0249
vn -0.7871 0.5867 0.1903
vn 0.0404 0.9989 -0.0247
vt 0.392495 0.400797
vt 0.421059 0.466003
vt 0.335964 0.442517
vt 0.303262 0.371768
vt 0.291292 0.439658
vt 0.236642 0.411723
vt 0.612295 0.54687
vt 0.361431 0.27472
vt 0.410228 0.000103
vt 0.537939 0.084205
vt 0.828682 0.000103
vt 0.94379 0.041986
vt 0.920003 0.113218
vt 0.991234 0.210645
vt 0.648808 0.295571
vt 0.409892 0.350548
vt 0.566427 0.112561
vt 0.373943 0.297357
vt 0.183652 0.664858
vt 0.490188 0.664858
vt 0.999897 0.294865
vt 0.858264 0.237208
vt 0.130708 0.305598
vt 0.000103 0.311358
vt 0.099936 0.081923
vt 0.259564 0.294084
vt 0.69113 0.034461
vt 0.649125 0.160317
vt 0.217637 0.334592
vt 0.226893 0.367951
vt 0.282017 0.331411
vt 0.749184 0.39128
vt 0.720441 0.391274
vt 0.875273 0.39128
vt 0.026454 0.528538
vt 0.649013 0.341033
usemtl 
f 1/1/1 2/2/1 3/3/1
f 4/4/2 3/3/2 5/5/2
f 4/4/2 5/5/2 6/6/2
f 2/2/3 1/1/3 7/7/3
f 8/8/4 9/9/4 10/10/4
f 11/11/5 12/12/5 13/13/5
f 12/12/5 14/14/5 13/13/5
f 15/15/6 16/16/6 17/17/6
f 16/16/6 18/18/6 17/17/6
f 12/19/7 5/5/7 14/20/7
f 5/5/7 3/3/7 14/20/7
f 14/14/8 7/21/8 19/22/8
f 14/14/8 19/22/8 13/13/8
f 20/23/9 21/24/9 22/25/9
f 8/8/10 23/26/10 9/9/10
f 23/26/10 22/25/10 9/9/10
f 21/27/11 11/11/11 13/13/11
f 21/27/11 13/13/11 22/28/11
f 20/23/12 24/29/12 25/30/12
f 20/23/12 25/30/12 21/24/12
f 24/29/13 23/26/13 26/31/13
f 16/16/14 4/4/14 26/31/14
f 16/16/14 26/31/14 18/18/14
f 22/28/15 19/22/15 17/32/15
f 22/28/15 17/32/15 10/33/15
f 17/17/16 18/18/16 10/10/16
f 18/18/16 8/8/16 10/10/16
f 13/13/17 19/22/17 22/28/17
f 17/32/18 19/22/18 15/34/18
f 19/22/18 7/21/18 15/34/18
f 22/25/19 23/26/19 24/29/19
f 22/25/19 24/29/19 20/23/19
f 26/31/20 23/26/20 18/18/20
f 23/26/20 8/8/20 18/18/20
f 11/35/21 6/6/21 12/19/21
f 6/6/21 5/5/21 12/19/21
f 26/31/22 4/4/22 25/30/22
f 4/4/22 6/6/22 25/30/22
f 14/20/23 3/3/23 7/7/23
f 3/3/23 2/2/23 7/7/23
f 7/7/24 1/1/24 16/16/24
f 7/7/24 16/16/24 15/15/24
f 10/33/25 9/36/25 22/28/25
f 25/30/26 24/29/26 26/31/26
f 21/24/27 25/30/27 6/6/27
f 21/24/27 6/6/27 11/35/27
f 4/4/28 16/16/28 1/1/28
f 4/4/28 1/1/28 3/3/28
s off
