# 3ds Max Wavefront OBJ Exporter v0.99 - (c)2007 guruware
# File Created: 18.11.2025 18:59:50

mtllib Log uv.mtl

#
# object Log
#

v  59.9314 24.7998 5.4743
v  59.4697 22.1970 -6.1627
v  103.1746 24.2880 -6.0980
v  104.0384 26.3842 5.4742
v  57.6257 15.4742 -15.9121
v  99.5711 18.0741 -15.7808
v  44.9802 6.3819 -26.0677
v  96.9954 8.6614 -22.2405
v  50.6626 -7.2735 -24.7151
v  95.1363 -2.5244 -24.5240
v  48.8301 -16.0426 -22.4171
v  93.6791 -13.8027 -22.2405
v  47.5968 -25.7745 -15.9121
v  92.7295 -23.4724 -15.7809
v  46.7952 -32.5111 -6.1627
v  94.5867 -30.1326 -6.0980
v  46.0956 -35.1914 5.4742
v  94.5820 -32.7464 5.4742
v  46.7952 -32.5111 17.1111
v  94.5867 -30.1326 17.0464
v  47.5968 -25.7745 26.8606
v  92.7295 -23.4724 26.7293
v  48.8301 -16.0426 33.3655
v  93.6792 -13.8027 33.1889
v  50.6626 -4.7365 35.6636
v  95.1363 -2.5244 35.4724
v  53.3061 6.3819 33.3655
v  96.9954 8.6614 33.1889
v  57.6257 15.4742 26.8606
v  99.5711 18.0741 26.7293
v  59.4697 22.1970 17.1112
v  103.1746 24.2880 17.0464
v  106.5535 29.5705 19.4448
v  101.4519 22.1780 31.0961
v  -110.7124 14.2137 -13.7165
v  -113.2570 20.8540 -4.1383
v  -116.2731 27.3177 -6.4986
v  -112.8308 19.0703 -18.0210
v  -108.8568 -15.9224 34.7050
v  -110.4677 -25.6044 28.3146
v  -110.9739 -29.9102 32.6191
v  -108.7896 -18.3164 40.2899
v  101.4519 22.1781 -20.1477
v  106.5535 29.5705 -8.4963
v  93.6970 -16.1249 38.8495
v  92.5638 -27.7899 31.0961
v  -110.5664 -31.7350 -4.1383
v  -110.4677 -25.6044 -13.7165
v  -110.9739 -29.9101 -18.0210
v  -111.1107 -37.2427 -6.4987
v  -114.0559 23.9275 7.2991
v  -113.2570 20.8540 18.7364
v  -116.2731 27.3176 21.0967
v  -116.9648 32.0779 7.2991
v  94.3505 -35.8645 -8.4963
v  92.5638 -27.7899 -20.1477
v  107.8522 32.8863 5.4742
v  -108.4330 5.7157 -20.1069
v  -109.7973 7.9071 -25.6918
v  -106.5007 -4.4132 36.9631
v  -106.7267 -4.4368 43.0081
v  97.8572 10.9065 -27.9010
v  95.5157 -2.5432 41.5994
v  -110.0887 -32.9968 7.2990
v  -110.5812 -37.9992 7.2990
v  94.3140 -39.1024 5.4742
v  -106.5008 -4.4132 -22.3650
v  -106.7267 -4.4368 -28.4100
v  -108.4330 5.7156 34.7050
v  -109.7973 7.9071 40.2899
v  95.5157 -2.5432 -30.6509
v  97.8572 10.9065 38.8495
v  -110.5664 -31.7350 18.7363
v  -111.1107 -37.2427 21.0967
v  94.3505 -35.8645 19.4447
v  -108.8568 -15.9224 -20.1070
v  -108.7896 -18.3163 -25.6919
v  -110.7124 14.2137 28.3146
v  -112.8308 19.0702 32.6191
v  93.6970 -16.1249 -27.9011
v  124.1680 32.7197 -9.1254
v  124.9879 36.4673 5.4742
v  119.1956 24.5821 -21.2185
v  114.6097 12.9409 -29.2796
v  111.7998 -1.0356 -32.1430
v  109.7041 -15.1669 -29.2796
v  100.7501 -27.3086 -21.2185
v  102.7551 -35.7845 -9.1254
v  103.1619 -39.2620 5.4742
v  102.7551 -35.7845 20.0738
v  100.7501 -27.3087 32.1669
v  109.7041 -15.1670 40.2280
v  111.7998 -1.0357 43.0915
v  114.6097 12.9408 40.2281
v  119.1957 24.5820 32.1670
v  124.1680 32.7197 20.0739
v  110.5975 44.1209 5.4742
v  130.4708 47.8375 5.4742
v  127.7470 42.5614 -13.1977
v  109.4043 39.5945 -12.6458
v  123.1780 31.3409 -28.5629
v  106.0731 28.8488 -27.6110
v  117.0112 16.4653 -38.8020
v  100.1059 14.5668 -37.5847
v  112.7463 -1.2292 -42.3894
v  96.5151 -2.7001 -41.0654
v  109.8708 -19.1996 -38.7460
v  93.8303 -20.1888 -37.5228
v  102.7263 -34.7191 -28.5557
v  94.3701 -35.2961 -27.5976
v  106.2851 -45.6639 -13.1977
v  97.9700 -45.9302 -12.6458
v  106.7740 -50.4116 5.4742
v  97.7882 -50.3819 5.4742
v  106.2851 -45.6640 24.1461
v  97.9700 -45.9303 23.5943
v  102.7263 -34.7192 39.5041
v  94.3701 -35.2961 38.5460
v  109.8708 -19.1996 49.6944
v  93.8304 -20.1889 48.4712
v  112.7463 -1.2292 53.3378
v  96.5151 -2.7001 52.0138
v  117.0112 16.4653 49.7504
v  100.1059 14.5668 48.5332
v  123.1781 31.3409 39.5114
v  106.0731 28.8488 38.5594
v  127.7470 42.5613 24.1461
v  109.4043 39.5944 23.5943
v  122.0794 0.1617 53.4324
v  126.3444 17.8562 49.8450
v  -130.5862 28.8692 -6.6915
v  -139.2007 38.6394 -10.6006
v  -145.6173 38.6394 -10.6006
v  -137.0029 28.8692 -6.6915
v  -118.4528 -19.3241 40.6951
v  -120.6079 -31.1337 32.9319
v  -120.3239 -38.0555 39.9927
v  -117.2799 -22.9887 49.8180
v  132.5112 32.7318 -28.4683
v  126.3443 17.8562 -38.7074
v  -122.0903 -38.4971 -6.6915
v  -120.6079 -31.1336 -18.3338
v  -120.3239 -38.0555 -25.3946
v  -121.9765 -47.1102 -10.6006
v  -128.9804 32.2019 7.2991
v  -130.5862 28.8692 21.2896
v  -139.2007 38.6394 25.1987
v  -141.4587 43.3010 7.2991
v  128.5288 25.9730 -21.1239
v  133.5011 34.1106 -9.0308
v  -123.0458 8.6943 -26.0970
v  -126.6605 20.6259 -18.3338
v  -131.3850 27.8864 -25.4082
v  -124.7465 12.5645 -35.2787
v  -116.5120 -5.2714 43.4467
v  -117.0206 -5.2504 53.3213
v  123.9428 14.3317 40.3227
v  121.1329 0.3552 43.1861
v  -123.9072 -38.4697 7.2990
v  -123.8832 -50.0985 7.2990
v  -116.5121 -5.2714 -28.8486
v  -122.3983 5.7926 -26.6688
v  -123.8468 8.8443 -35.9980
v  -117.0206 -5.2504 -38.7232
v  -123.0457 8.6943 40.6951
v  -124.7464 12.5644 49.8768
v  132.5112 32.7318 39.6060
v  137.0801 43.9522 24.2407
v  119.0372 -13.7760 -29.1850
v  121.1329 0.3553 -32.0484
v  -122.0903 -38.4971 21.2896
v  -121.9765 -47.1102 25.1987
v  -118.4528 -19.3240 -26.0971
v  -117.2800 -22.9886 -35.2200
v  -126.6605 20.6259 32.9319
v  -131.3850 27.8863 40.0063
v  122.0794 0.1617 -42.2948
v  119.2040 -17.8087 -38.6514
v  134.3210 37.8582 5.5688
v  133.5012 34.1106 20.1685
v  137.0801 43.9522 -13.1030
v  64.5243 38.0790 23.6798
v  65.2569 42.4723 5.4743
v  61.6383 27.4451 38.8152
v  58.2626 12.0871 48.9075
v  52.5843 -4.9755 52.3124
v  49.0336 -22.4981 48.7470
v  46.7482 -37.7187 38.7423
v  45.3850 -48.4771 23.6798
v  44.3540 -53.1542 5.4742
v  45.3850 -48.4771 -12.7313
v  46.7481 -37.7187 -27.7939
v  49.0335 -22.4980 -37.7986
v  52.5843 -7.5125 -41.3639
v  49.9367 12.0872 -37.9590
v  61.6383 27.4451 -27.8667
v  64.5243 38.0790 -12.7313
v  -126.9791 44.1038 7.2991
v  -124.1174 39.4894 -10.5992
v  -117.1157 27.1364 -25.4111
v  -111.0966 11.8795 -35.2842
v  -106.7927 -4.3939 -38.7232
v  -107.1513 -22.3308 -35.2200
v  -110.0599 -37.2624 -25.3946
v  -110.5628 -46.1066 -10.5992
v  -109.7596 -48.5174 7.2990
v  -110.5628 -46.1066 25.1973
v  -110.0598 -37.2625 39.9927
v  -107.1513 -22.3309 49.8180
v  -106.7927 -4.3939 53.3213
v  -111.0926 11.8796 49.8823
v  -117.1157 27.1364 40.0092
v  -124.1174 39.4894 25.1973
v  -30.8505 46.1851 7.7119
v  -2.5964 49.4385 8.1247
v  -2.6820 44.9031 -9.9463
v  -30.6173 41.6605 -10.5873
v  -2.7311 34.2029 -24.9520
v  -29.5794 30.8823 -25.7915
v  3.5986 18.8465 -34.9842
v  -27.7945 15.5969 -35.9430
v  -2.7672 0.8714 -38.3160
v  -23.0338 -0.6486 -39.3414
v  -2.7672 -17.0169 -34.7575
v  -20.9432 -18.8842 -35.7480
v  -2.7431 -32.3504 -24.8438
v  -19.8344 -34.3049 -25.7004
v  -2.6820 -43.0984 -9.9464
v  -19.2123 -44.0605 -10.5873
v  -2.5964 -47.5749 8.1246
v  -18.6135 -48.0492 7.7118
v  -2.6820 -43.0969 26.5065
v  -19.2123 -44.0598 26.1663
v  -2.7430 -32.3478 41.6223
v  -19.8344 -34.3036 41.3886
v  -2.7672 -17.0136 51.6219
v  -20.9432 -18.8825 51.4792
v  -2.7672 0.8751 55.1804
v  -23.0337 -0.6468 55.0726
v  -2.7472 18.8500 51.7777
v  -27.7945 15.5986 51.6387
v  -2.7311 34.2055 41.6881
v  -29.5794 30.8836 41.4586
v  -30.6173 41.6612 26.1664
v  -26.8794 55.8252 51.0997
v  -27.5287 62.5670 41.5339
v  -2.6820 44.9046 26.5065
v  -80.4448 38.4179 25.8263
v  -80.9968 42.9318 7.2991
v  -78.3199 27.5617 41.2291
v  -74.7341 12.3472 51.4998
v  -65.1925 -2.1687 54.9648
v  -61.0114 -20.7515 51.3365
v  -58.8180 -36.2594 41.1550
v  -57.6348 -45.0226 25.8262
v  -56.5229 -48.5236 7.2990
v  -57.6349 -45.0226 -11.2282
v  -58.8180 -36.2593 -26.5570
v  -61.0114 -20.7515 -36.7384
v  -65.1925 -2.1686 -40.3668
v  -74.7341 12.3473 -36.9017
v  -78.3199 27.5617 -26.6310
v  -80.4448 38.4179 -11.2282
v  3.4907 12.4015 -19.4125
v  -2.8552 0.8709 -21.7062
v  -75.4904 24.9077 7.2990
v  -75.1766 22.2339 19.1416
v  -2.7701 31.6125 8.2875
v  -2.8167 28.9659 19.9883
v  -73.1440 15.4122 29.0633
v  -2.8454 22.2290 29.7631
v  -68.1267 6.1015 35.6832
v  -2.8551 12.4037 36.2660
v  -64.3694 -3.3915 38.0218
v  -2.8552 0.8732 38.5597
v  -61.8142 -14.1163 35.6832
v  -2.8552 -10.6575 36.2660
v  -60.2625 -24.1281 29.0633
v  -2.8455 -20.4762 29.7631
v  -59.1338 -30.4319 19.1415
v  -2.8167 -27.1932 19.9883
v  -58.2392 -31.5557 7.2990
v  -2.7701 -29.8077 8.2877
v  -59.1338 -30.4319 -4.5435
v  -2.8167 -27.1941 -3.2749
v  -60.2625 -24.1281 -14.4652
v  -2.8455 -20.4779 -12.9449
v  -61.8142 -14.1163 -21.0851
v  -2.8552 -10.6596 -19.4125
v  -64.3695 -3.3915 -23.4238
v  -68.1267 6.1015 -21.0851
v  -73.1440 15.4122 -14.4652
v  -2.8455 22.2273 -12.9449
v  -75.1766 22.2339 -4.5435
v  -2.8167 28.9650 -3.2748
v  -133.0771 20.6259 -18.3338
v  -137.8016 27.8864 -25.4082
v  -10.0849 57.9032 51.2433
v  -10.0542 64.5958 41.7467
v  128.5288 25.9729 32.2616
v  139.8040 49.2284 5.5688
v  123.9428 14.3318 -29.1850
# 302 vertices

vn 0.0409 -0.9797 0.1960
vn 0.0446 -0.8373 0.5449
vn 0.0035 -0.6697 0.7426
vn -0.0384 -0.0433 0.9983
vn -0.0217 0.2261 0.9739
vn -0.0310 0.5577 0.8294
vn -0.0426 0.8215 0.5686
vn -0.0489 0.9741 0.2207
vn -0.0490 0.9741 0.2207
vn -0.0489 0.9741 -0.2207
vn -0.0490 0.9741 -0.2207
vn -0.0426 0.8215 -0.5686
vn -0.0310 0.5577 -0.8294
vn -0.0140 0.2008 -0.9795
vn 0.0062 -0.2024 -0.9793
vn 0.0302 -0.5811 -0.8133
vn 0.0302 -0.5810 -0.8133
vn 0.0446 -0.8373 -0.5449
vn 0.0409 -0.9797 -0.1960
vn 0.8626 -0.5049 0.0299
vn 0.8626 -0.5050 0.0299
vn -0.9156 -0.4015 0.0235
vn -0.9885 0.1418 0.0522
vn 0.8626 -0.5050 -0.0299
vn 0.8626 -0.5049 -0.0299
vn 0.9966 -0.0743 -0.0345
vn -0.9960 0.0797 0.0397
vn -0.9284 -0.3669 -0.0590
vn -0.9284 -0.3669 -0.0591
vn 0.9897 0.0507 -0.1340
vn 0.9897 0.0507 -0.1341
vn 0.8563 -0.5152 -0.0367
vn -0.9404 -0.3252 0.0994
vn -0.9857 0.1674 0.0213
vn 0.9456 -0.3204 0.0558
vn 0.9912 -0.1191 -0.0570
vn 0.9912 -0.1191 -0.0571
vn -0.9951 0.0877 0.0467
vn 0.9992 -0.0402 -0.0076
vn -0.9679 -0.2351 0.0885
vn -0.9679 -0.2351 -0.0885
vn 0.9810 -0.1814 0.0690
vn 0.9810 -0.1814 -0.0690
vn -0.9951 0.0877 -0.0467
vn 0.9992 -0.0402 0.0076
vn -0.9857 0.1674 -0.0213
vn -0.9404 -0.3252 -0.0994
vn -0.9284 -0.3669 0.0590
vn 0.9912 -0.1191 0.0571
vn 0.9912 -0.1191 0.0570
vn 0.9456 -0.3204 -0.0558
vn 0.8563 -0.5152 0.0367
vn -0.9960 0.0797 -0.0397
vn 0.9897 0.0507 0.1340
vn 0.9897 0.0507 0.1341
vn -0.9885 0.1418 -0.0522
vn -0.9156 -0.4015 -0.0235
vn 0.9966 -0.0743 0.0345
vn 0.1893 -0.9564 0.2224
vn 0.1581 -0.8558 0.4926
vn 0.1328 -0.5947 0.7929
vn 0.1077 -0.2187 0.9698
vn 0.0727 0.1881 0.9794
vn 0.0727 0.1881 0.9795
vn 0.0533 0.5368 0.8420
vn 0.0304 0.8223 0.5683
vn 0.0128 0.9734 0.2286
vn 0.0128 0.9734 -0.2286
vn 0.0304 0.8223 -0.5683
vn 0.0533 0.5368 -0.8420
vn 0.0727 0.1881 -0.9795
vn 0.0727 0.1881 -0.9794
vn 0.1077 -0.2187 -0.9698
vn 0.1328 -0.5947 -0.7929
vn 0.1581 -0.8558 -0.4926
vn 0.1893 -0.9564 -0.2224
vn -0.1707 0.9565 -0.2367
vn -0.1496 0.8189 -0.5541
vn -0.1279 0.6004 -0.7894
vn -0.0967 0.2181 -0.9711
vn -0.0967 0.2180 -0.9711
vn -0.0966 0.2180 -0.9711
vn -0.0630 -0.1887 -0.9800
vn -0.0402 -0.5425 -0.8391
vn -0.0111 -0.8158 -0.5782
vn 0.0055 -0.9701 -0.2426
vn 0.0055 -0.9701 0.2426
vn -0.0111 -0.8158 0.5782
vn -0.0402 -0.5425 0.8391
vn -0.0630 -0.1887 0.9800
vn -0.0966 0.2180 0.9711
vn -0.0967 0.2180 0.9711
vn -0.1279 0.6004 0.7894
vn -0.1278 0.6004 0.7894
vn -0.1496 0.8189 0.5541
vn -0.1707 0.9565 0.2367
vn -0.0409 0.2080 0.9773
vn 0.0000 0.3715 0.9284
vn -0.9844 0.0927 0.1493
vn -0.0794 0.5873 -0.8055
vn 0.8949 -0.3074 -0.3235
vn -0.9949 0.0402 -0.0930
vn -0.7091 -0.6872 -0.1578
vn -0.7092 -0.6872 -0.1578
vn 0.9555 0.2946 0.0147
vn 0.1208 -0.8459 0.5195
vn -0.9125 -0.3996 0.0870
vn -0.9971 0.0599 0.0463
vn 0.0410 -0.2084 -0.9772
vn 0.9871 -0.1357 -0.0848
vn -0.9933 0.0154 -0.1146
vn 0.9486 0.3122 0.0516
vn -0.8910 -0.4537 0.0182
vn -0.8909 -0.4537 0.0182
vn -0.9106 -0.4127 -0.0213
vn -0.1277 0.8187 0.5599
vn -0.0403 0.2042 0.9781
vn -0.9933 0.0154 0.1146
vn 0.9486 0.3122 -0.0516
vn -0.9971 0.0599 -0.0463
vn -0.9125 -0.3996 -0.0870
vn -0.9125 -0.3996 -0.0871
vn -0.7092 -0.6872 0.1578
vn -0.7091 -0.6872 0.1578
vn 0.0404 -0.2047 -0.9780
vn 0.1455 -0.9602 -0.2383
vn -0.0693 0.4028 0.9127
vn -0.0693 0.4028 0.9126
vn -0.9949 0.0402 0.0930
vn 0.9555 0.2946 -0.0147
vn -0.9844 0.0927 -0.1493
vn -0.8056 -0.5888 -0.0653
vn -0.8056 -0.5889 -0.0653
vn 0.8949 -0.3074 0.3235
vn -0.0338 0.9710 0.2366
vn -0.0245 0.8174 0.5755
vn -0.0194 0.5647 0.8251
vn -0.0033 0.1975 0.9803
vn -0.0032 0.1975 0.9803
vn 0.0168 -0.2018 0.9793
vn 0.0324 -0.5502 0.8344
vn 0.0419 -0.8121 0.5820
vn 0.0488 -0.9691 0.2419
vn 0.0488 -0.9691 -0.2419
vn 0.0419 -0.8121 -0.5820
vn 0.0324 -0.5502 -0.8344
vn 0.0238 -0.2181 -0.9756
vn -0.0072 0.1838 -0.9829
vn -0.0178 0.5678 -0.8230
vn -0.0245 0.8174 -0.5755
vn -0.0338 0.9710 -0.2366
vn -0.0539 0.9647 -0.2577
vn -0.0027 0.7878 -0.6159
vn 0.0281 0.5504 -0.8344
vn 0.0143 -0.1929 -0.9811
vn 0.0393 -0.5530 -0.8323
vn 0.0709 -0.8558 -0.5125
vn 0.0996 -0.9843 -0.1454
vn 0.0996 -0.9843 0.1454
vn 0.0709 -0.8558 0.5125
vn 0.0393 -0.5530 0.8323
vn 0.0143 -0.1929 0.9811
vn -0.0016 0.1974 0.9803
vn 0.0281 0.5504 0.8344
vn -0.0027 0.7878 0.6159
vn -0.0539 0.9647 0.2577
vn -0.0710 0.9972 -0.0229
vn -0.0709 0.9972 -0.0229
vn -0.0353 -0.2158 -0.9758
vn -0.1011 -0.8254 0.5554
vn -0.0954 0.5603 0.8228
vn -0.1142 0.8425 -0.5265
vn -0.0709 -0.5683 -0.8198
vn -0.0709 -0.5683 0.8198
vn -0.1142 0.8425 0.5265
vn -0.0954 0.5603 -0.8228
vn -0.1011 -0.8254 -0.5554
vn -0.0710 0.9972 0.0229
vn -0.0709 0.9972 0.0229
vn -0.0614 0.2003 -0.9778
vn -0.0630 -0.9576 0.2810
vn -0.0630 -0.9576 -0.2810
vn -0.0614 0.2003 0.9778
vn -0.1070 0.9647 -0.2407
vn -0.0815 0.8110 -0.5793
vn -0.0354 0.5432 -0.8389
vn 0.0200 0.1920 -0.9812
vn 0.0681 -0.1900 -0.9794
vn 0.1022 -0.5389 -0.8361
vn 0.0963 -0.8208 -0.5630
vn 0.0503 -0.9725 -0.2273
vn 0.0378 -0.9737 0.2245
vn 0.0622 -0.8263 0.5599
vn 0.0622 -0.8262 0.5599
vn 0.0622 -0.8263 0.5598
vn 0.0502 -0.5449 0.8370
vn 0.0107 -0.1936 0.9810
vn -0.0256 0.1924 0.9810
vn -0.0752 0.5471 0.8337
vn -0.9916 0.0639 0.1123
vn -0.1147 0.9646 0.2376
vn 0.0226 0.9703 0.2410
vn -0.0074 0.7920 0.6105
vn -0.0075 0.7919 0.6105
vn -0.0075 0.7920 0.6105
vn -0.0381 0.5427 0.8391
vn -0.0478 0.1980 0.9790
vn -0.0269 -0.1943 0.9806
vn -0.0084 -0.5491 0.8357
vn 0.0086 -0.8632 0.5047
vn 0.0091 -0.9870 0.1607
vn 0.0091 -0.9870 -0.1607
vn 0.0086 -0.8632 -0.5047
vn -0.0084 -0.5491 -0.8357
vn -0.0269 -0.1943 -0.9806
vn -0.0478 0.1980 -0.9790
vn -0.0381 0.5427 -0.8391
vn -0.0075 0.7920 -0.6105
vn -0.0075 0.7919 -0.6105
vn 0.0226 0.9703 -0.2410
vn 0.0890 0.9667 -0.2399
vn 0.0587 0.8121 -0.5805
vn 0.0220 0.5452 -0.8380
vn 0.9209 -0.3832 -0.0711
vn -0.0817 -0.2026 -0.9758
vn -0.1070 -0.5374 -0.8365
vn -0.1228 -0.8037 -0.5822
vn -0.1228 -0.8037 -0.5823
vn -0.1249 -0.9612 -0.2458
vn -0.0972 -0.9649 0.2440
vn -0.0555 -0.8120 0.5811
vn -0.0111 -0.5471 0.8370
vn 0.0313 -0.2001 0.9793
vn 0.0679 0.1796 0.9814
vn 0.0965 0.5391 0.8367
vn 0.1085 0.8080 0.5791
vn 0.1082 0.9652 0.2379
vn 0.0311 -0.9700 -0.2410
vn 0.0312 -0.9700 -0.2410
vn 0.0927 -0.9710 -0.2205
vn -0.1153 -0.9686 -0.2204
vn 0.0366 -0.8183 -0.5736
vn 0.0838 -0.8168 -0.5708
vn -0.1164 -0.8125 -0.5713
vn 0.0298 -0.5816 -0.8129
vn 0.0299 -0.5816 -0.8129
vn 0.0614 -0.5535 -0.8306
vn -0.1013 -0.5478 -0.8304
vn 0.0278 -0.2203 -0.9750
vn 0.0279 -0.2203 -0.9750
vn 0.0262 -0.2106 -0.9772
vn -0.0719 -0.1901 -0.9791
vn 0.0159 0.2026 -0.9791
vn -0.0039 0.2033 -0.9791
vn -0.0331 0.1996 -0.9793
vn -0.0038 0.5512 -0.8344
vn -0.0244 0.5504 -0.8346
vn -0.0244 0.5503 -0.8346
vn 0.0106 0.5534 -0.8328
vn -0.0169 0.8426 -0.5382
vn -0.0429 0.8323 -0.5527
vn 0.0543 0.8212 -0.5680
vn -0.0260 0.9943 -0.1034
vn -0.0414 0.9865 -0.1583
vn 0.0926 0.9705 -0.2228
vn -0.0260 0.9943 0.1034
vn -0.0472 0.9861 0.1594
vn 0.1181 0.9674 0.2241
vn -0.0169 0.8426 0.5382
vn -0.0638 0.8294 0.5550
vn 0.1196 0.8139 0.5686
vn -0.0038 0.5512 0.8344
vn -0.0563 0.5469 0.8353
vn 0.1056 0.5452 0.8316
vn 0.0159 0.2026 0.9791
vn -0.0403 0.1992 0.9791
vn 0.0830 0.2127 0.9736
vn 0.0278 -0.2203 0.9750
vn 0.0279 -0.2203 0.9750
vn -0.0079 -0.2142 0.9767
vn -0.1758 -0.8879 -0.4252
vn -0.1758 -0.8878 -0.4252
vn 0.0298 -0.5816 0.8129
vn 0.0299 -0.5816 0.8129
vn 0.0322 -0.5511 0.8338
vn -0.0113 -0.6579 0.7530
vn 0.0366 -0.8183 0.5736
vn 0.0664 -0.8173 0.5724
vn -0.0627 -0.8174 0.5726
vn 0.0311 -0.9700 0.2410
vn 0.0312 -0.9700 0.2410
vn 0.0865 -0.9712 0.2218
vn -0.0953 -0.9704 0.2217
vn -0.0331 -0.2168 0.9756
vn -0.0030 0.1979 -0.9802
vn -0.0031 0.1979 -0.9802
vn -0.8056 -0.5888 0.0653
vn -0.8056 -0.5889 0.0653
vn 0.0000 0.8092 -0.5876
vn 0.0000 -0.6979 -0.7162
vn 0.0000 -0.8161 0.5779
vn -0.0648 0.9691 0.2382
vn -0.0575 0.8132 0.5791
vn -0.0411 0.5514 0.8332
vn -0.0141 0.2126 0.9770
vn 0.0049 -0.1917 0.9814
vn 0.0224 -0.5464 0.8372
vn 0.0225 -0.5464 0.8372
vn 0.0283 -0.8541 0.5194
vn 0.0284 -0.8541 0.5194
vn 0.0165 -0.9798 0.1992
vn 0.0212 -0.9795 -0.2002
vn 0.0422 -0.8525 -0.5211
vn 0.0459 -0.5434 -0.8382
vn 0.0318 -0.1872 -0.9818
vn 0.0098 0.2221 -0.9750
vn -0.0224 0.5535 -0.8325
vn -0.0455 0.8135 -0.5797
vn -0.0604 0.9691 -0.2391
vn -0.0605 0.9691 -0.2391
vn -0.1032 0.8115 0.5752
vn -0.0596 0.5969 -0.8001
vn 0.9588 0.2307 0.1657
vn 0.0371 -0.3638 0.9307
vn -0.9383 -0.2185 -0.2680
vn 0.1502 0.9887 0.0020
vn -0.2087 0.9065 0.3669
vn -0.0450 -0.9243 -0.3789
vn 0.9057 -0.4236 0.0161
vn 0.9057 -0.4236 -0.0161
vn 0.9201 -0.3915 -0.0082
vn 0.9021 -0.4233 0.0833
vn 0.9021 -0.4234 0.0833
vn 0.9630 -0.2401 0.1226
vn 0.9630 -0.2401 -0.1226
vn 0.9871 -0.1357 0.0848
vn 0.9021 -0.4233 -0.0834
vn 0.9021 -0.4233 -0.0833
vn 0.9021 -0.4234 -0.0833
vn 0.9021 -0.4234 -0.0834
vn 0.9201 -0.3915 0.0082
vn 0.0109 -0.0053 -0.9999
vn 0.1476 -0.9885 -0.0323
vn 0.0964 -0.5920 -0.8001
vn -0.1452 0.9575 0.2494
vn 0.0795 -0.5885 0.8046
vn -0.0204 0.2034 -0.9789
vn -0.0962 0.5911 0.8008
vn 0.1314 -0.8466 -0.5157
vn 0.0206 -0.2046 0.9786
vn 0.1318 -0.9111 0.3905
vn -0.1162 0.8183 -0.5630
# 352 vertex normals

vt 0.3162 0.8143 0.0000
vt 0.3144 0.7975 0.0000
vt 0.3771 0.7926 0.0000
vt 0.3795 0.8112 0.0000
vt 0.3105 0.7808 0.0000
vt 0.3705 0.7747 0.0000
vt 0.2925 0.7630 0.0000
vt 0.3646 0.7567 0.0000
vt 0.2973 0.7432 0.0000
vt 0.3596 0.7387 0.0000
vt 0.2933 0.7310 0.0000
vt 0.3549 0.7209 0.0000
vt 0.2897 0.7155 0.0000
vt 0.3506 0.7032 0.0000
vt 0.2861 0.7001 0.0000
vt 0.3482 0.6855 0.0000
vt 0.2820 0.6845 0.0000
vt 0.3428 0.6699 0.0000
vt 0.2956 0.9466 0.0000
vt 0.2978 0.9307 0.0000
vt 0.3610 0.9396 0.0000
vt 0.3571 0.9557 0.0000
vt 0.3000 0.9150 0.0000
vt 0.3618 0.9218 0.0000
vt 0.3024 0.8990 0.0000
vt 0.3645 0.9037 0.0000
vt 0.3052 0.8851 0.0000
vt 0.3677 0.8855 0.0000
vt 0.3089 0.8685 0.0000
vt 0.3709 0.8673 0.0000
vt 0.3146 0.8495 0.0000
vt 0.3746 0.8488 0.0000
vt 0.3166 0.8317 0.0000
vt 0.3790 0.8300 0.0000
vt 0.3906 0.8306 0.0000
vt 0.3849 0.8505 0.0000
vt 0.0700 0.7869 0.0000
vt 0.0687 0.8063 0.0000
vt 0.0561 0.8079 0.0000
vt 0.0581 0.7874 0.0000
vt 0.0856 0.9162 0.0000
vt 0.0859 0.9340 0.0000
vt 0.0777 0.9363 0.0000
vt 0.0770 0.9176 0.0000
vt 0.3807 0.7719 0.0000
vt 0.3891 0.7905 0.0000
vt 0.3732 0.9057 0.0000
vt 0.3704 0.9240 0.0000
vt 0.0772 0.6959 0.0000
vt 0.0746 0.7127 0.0000
vt 0.0664 0.7105 0.0000
vt 0.0705 0.6930 0.0000
vt 0.0698 0.8259 0.0000
vt 0.0731 0.8450 0.0000
vt 0.0615 0.8464 0.0000
vt 0.0569 0.8276 0.0000
vt 0.3550 0.6820 0.0000
vt 0.3589 0.7002 0.0000
vt 0.3926 0.8103 0.0000
vt 0.0715 0.7687 0.0000
vt 0.0591 0.7671 0.0000
vt 0.0861 0.8972 0.0000
vt 0.0771 0.8991 0.0000
vt 0.3738 0.7539 0.0000
vt 0.3773 0.8875 0.0000
vt 0.0824 0.6806 0.0000
vt 0.0799 0.6774 0.0000
vt 0.3461 0.6650 0.0000
vt 0.0750 0.7509 0.0000
vt 0.0653 0.7492 0.0000
vt 0.0823 0.8803 0.0000
vt 0.0732 0.8828 0.0000
vt 0.3684 0.7360 0.0000
vt 0.3807 0.8693 0.0000
vt 0.0891 0.9504 0.0000
vt 0.0947 0.9654 0.0000
vt 0.0919 0.9687 0.0000
vt 0.0822 0.9533 0.0000
vt 0.3680 0.9424 0.0000
vt 0.3607 0.9602 0.0000
vt 0.0745 0.7311 0.0000
vt 0.0658 0.7297 0.0000
vt 0.0780 0.8633 0.0000
vt 0.0678 0.8651 0.0000
vt 0.3634 0.7180 0.0000
vt 0.4171 0.7888 0.0000
vt 0.4196 0.8081 0.0000
vt 0.4061 0.7695 0.0000
vt 0.3976 0.7516 0.0000
vt 0.3910 0.7338 0.0000
vt 0.3856 0.7146 0.0000
vt 0.3701 0.6968 0.0000
vt 0.3643 0.6764 0.0000
vt 0.3537 0.6588 0.0000
vt 0.3779 0.9471 0.0000
vt 0.3688 0.9656 0.0000
vt 0.3821 0.9263 0.0000
vt 0.3950 0.9069 0.0000
vt 0.4015 0.8884 0.0000
vt 0.4049 0.8683 0.0000
vt 0.4106 0.8494 0.0000
vt 0.4166 0.8296 0.0000
vt 0.6218 0.6391 0.0000
vt 0.6197 0.6885 0.0000
vt 0.5742 0.6811 0.0000
vt 0.5750 0.6357 0.0000
vt 0.5289 0.6688 0.0000
vt 0.5289 0.6267 0.0000
vt 0.4860 0.6524 0.0000
vt 0.4856 0.6110 0.0000
vt 0.4426 0.6401 0.0000
vt 0.4413 0.6003 0.0000
vt 0.3984 0.6315 0.0000
vt 0.3971 0.5932 0.0000
vt 0.3542 0.6146 0.0000
vt 0.3521 0.5944 0.0000
vt 0.3080 0.6235 0.0000
vt 0.3067 0.6032 0.0000
vt 0.2607 0.6249 0.0000
vt 0.2608 0.6030 0.0000
vt 0.9829 0.6015 0.0000
vt 0.9829 0.6235 0.0000
vt 0.9356 0.6221 0.0000
vt 0.9370 0.6017 0.0000
vt 0.8894 0.6138 0.0000
vt 0.8916 0.5932 0.0000
vt 0.8443 0.6322 0.0000
vt 0.8466 0.5927 0.0000
vt 0.7999 0.6407 0.0000
vt 0.8022 0.6005 0.0000
vt 0.7562 0.6528 0.0000
vt 0.7583 0.6107 0.0000
vt 0.7126 0.6693 0.0000
vt 0.7148 0.6265 0.0000
vt 0.6666 0.6816 0.0000
vt 0.6687 0.6357 0.0000
vt 0.7974 0.6637 0.0000
vt 0.7540 0.6759 0.0000
vt 0.0346 0.8128 0.0000
vt 0.0151 0.8141 0.0000
vt 0.0085 0.8124 0.0000
vt 0.0266 0.8119 0.0000
vt 0.0642 0.9226 0.0000
vt 0.0653 0.9422 0.0000
vt 0.0521 0.9446 0.0000
vt 0.0511 0.9240 0.0000
vt 0.5299 0.6917 0.0000
vt 0.4873 0.6751 0.0000
vt 0.4067 0.9136 0.0000
vt 0.3953 0.9322 0.0000
vt 0.0579 0.6851 0.0000
vt 0.0541 0.7045 0.0000
vt 0.0410 0.7020 0.0000
vt 0.0456 0.6815 0.0000
vt 0.0393 0.8304 0.0000
vt 0.0409 0.8488 0.0000
vt 0.0225 0.8521 0.0000
vt 0.0162 0.8341 0.0000
vt 0.3770 0.6682 0.0000
vt 0.3821 0.6894 0.0000
vt 0.4193 0.7675 0.0000
vt 0.4273 0.7834 0.0000
vt 0.0408 0.7734 0.0000
vt 0.0372 0.7912 0.0000
vt 0.0205 0.7881 0.0000
vt 0.0326 0.7643 0.0000
vt 0.0634 0.9026 0.0000
vt 0.0508 0.9059 0.0000
vt 0.4186 0.8670 0.0000
vt 0.4125 0.8838 0.0000
vt 0.4148 0.8957 0.0000
vt 0.0671 0.6677 0.0000
vt 0.0545 0.6594 0.0000
vt 0.3635 0.6470 0.0000
vt 0.0510 0.7446 0.0000
vt 0.0436 0.7583 0.0000
vt 0.0337 0.7631 0.0000
vt 0.0369 0.7423 0.0000
vt 0.0546 0.8836 0.0000
vt 0.0419 0.8881 0.0000
vt 0.7109 0.6925 0.0000
vt 0.6654 0.7048 0.0000
vt 0.3963 0.7173 0.0000
vt 0.4042 0.7328 0.0000
vt 0.0695 0.9613 0.0000
vt 0.0788 0.9786 0.0000
vt 0.0663 0.9870 0.0000
vt 0.0571 0.9651 0.0000
vt 0.3912 0.9542 0.0000
vt 0.3795 0.9765 0.0000
vt 0.0529 0.7245 0.0000
vt 0.0397 0.7228 0.0000
vt 0.0481 0.8661 0.0000
vt 0.0332 0.8700 0.0000
vt 0.4441 0.6628 0.0000
vt 0.3998 0.6539 0.0000
vt 0.4310 0.8122 0.0000
vt 0.4300 0.8301 0.0000
vt 0.4415 0.7810 0.0000
vt 0.4342 0.7875 0.0000
vt 0.3959 0.7041 0.0000
vt 0.6713 0.5238 0.0000
vt 0.6243 0.5266 0.0000
vt 0.7177 0.5156 0.0000
vt 0.7638 0.5063 0.0000
vt 0.8071 0.4913 0.0000
vt 0.8512 0.4820 0.0000
vt 0.8958 0.4761 0.0000
vt 0.9410 0.4727 0.0000
vt 0.9869 0.4702 0.0000
vt 0.3032 0.4765 0.0000
vt 0.2577 0.4734 0.0000
vt 0.3475 0.4799 0.0000
vt 0.3909 0.4852 0.0000
vt 0.4283 0.4922 0.0000
vt 0.4876 0.4911 0.0000
vt 0.5319 0.5194 0.0000
vt 0.5776 0.5258 0.0000
vt 0.6131 0.0164 0.0000
vt 0.6143 0.0518 0.0000
vt 0.5687 0.0597 0.0000
vt 0.5670 0.0228 0.0000
vt 0.5211 0.0775 0.0000
vt 0.5219 0.0426 0.0000
vt 0.4759 0.0929 0.0000
vt 0.4768 0.0598 0.0000
vt 0.4316 0.0786 0.0000
vt 0.4341 0.1036 0.0000
vt 0.3881 0.1028 0.0000
vt 0.3861 0.0780 0.0000
vt 0.3432 0.0962 0.0000
vt 0.3412 0.0710 0.0000
vt 0.3003 0.0961 0.0000
vt 0.2983 0.0681 0.0000
vt 0.2559 0.1002 0.0000
vt 0.2535 0.0656 0.0000
vt 0.9745 0.0512 0.0000
vt 0.9743 0.0859 0.0000
vt 0.9298 0.0845 0.0000
vt 0.9301 0.0564 0.0000
vt 0.8871 0.0867 0.0000
vt 0.8876 0.0615 0.0000
vt 0.8429 0.0952 0.0000
vt 0.8434 0.0704 0.0000
vt 0.7972 0.0975 0.0000
vt 0.7982 0.0723 0.0000
vt 0.7549 0.0879 0.0000
vt 0.7521 0.0544 0.0000
vt 0.7088 0.0740 0.0000
vt 0.7061 0.0388 0.0000
vt 0.6603 0.0579 0.0000
vt 0.6596 0.0208 0.0000
vt 0.6218 0.2875 0.0000
vt 0.6259 0.3564 0.0000
vt 0.5835 0.3564 0.0000
vt 0.5756 0.2885 0.0000
vt 0.5415 0.3564 0.0000
vt 0.5296 0.2917 0.0000
vt 0.5003 0.3726 0.0000
vt 0.4838 0.2971 0.0000
vt 0.4404 0.3577 0.0000
vt 0.4419 0.3081 0.0000
vt 0.3968 0.3568 0.0000
vt 0.3958 0.3125 0.0000
vt 0.3519 0.3573 0.0000
vt 0.3507 0.3152 0.0000
vt 0.3064 0.3581 0.0000
vt 0.3067 0.3176 0.0000
vt 0.2605 0.3587 0.0000
vt 0.2608 0.3206 0.0000
vt 0.9779 0.3127 0.0000
vt 0.9765 0.3527 0.0000
vt 0.9301 0.3528 0.0000
vt 0.9319 0.3113 0.0000
vt 0.8848 0.3528 0.0000
vt 0.8880 0.3099 0.0000
vt 0.8405 0.3531 0.0000
vt 0.8435 0.3077 0.0000
vt 0.7971 0.3537 0.0000
vt 0.7986 0.3034 0.0000
vt 0.7543 0.3544 0.0000
vt 0.7580 0.2925 0.0000
vt 0.7118 0.3550 0.0000
vt 0.7135 0.2892 0.0000
vt 0.4702 0.7145 0.0000
vt 0.5009 0.7166 0.0000
vt 0.4857 0.7589 0.0000
vt 0.4670 0.7573 0.0000
vt 0.6681 0.2872 0.0000
vt 0.6691 0.3559 0.0000
vt 0.6654 0.1649 0.0000
vt 0.6175 0.1646 0.0000
vt 0.7127 0.1693 0.0000
vt 0.7586 0.1771 0.0000
vt 0.7965 0.1996 0.0000
vt 0.8433 0.2086 0.0000
vt 0.8888 0.2130 0.0000
vt 0.9320 0.2153 0.0000
vt 0.9782 0.2177 0.0000
vt 0.3052 0.2246 0.0000
vt 0.2591 0.2293 0.0000
vt 0.3484 0.2206 0.0000
vt 0.3937 0.2150 0.0000
vt 0.4402 0.2051 0.0000
vt 0.4771 0.1819 0.0000
vt 0.5226 0.1727 0.0000
vt 0.5697 0.1668 0.0000
vt 0.4772 0.3946 0.0000
vt 0.4584 0.3853 0.0000
vt 0.1247 0.8221 0.0000
vt 0.1267 0.8398 0.0000
vt 0.2271 0.8182 0.0000
vt 0.2282 0.8342 0.0000
vt 0.1307 0.8572 0.0000
vt 0.2290 0.8495 0.0000
vt 0.1385 0.8733 0.0000
vt 0.2295 0.8671 0.0000
vt 0.1444 0.8870 0.0000
vt 0.2300 0.8822 0.0000
vt 0.1490 0.9020 0.0000
vt 0.2304 0.8951 0.0000
vt 0.1527 0.9180 0.0000
vt 0.2308 0.9105 0.0000
vt 0.1561 0.9334 0.0000
vt 0.2313 0.9264 0.0000
vt 0.1598 0.9491 0.0000
vt 0.2320 0.9426 0.0000
vt 0.1474 0.6943 0.0000
vt 0.1446 0.7101 0.0000
vt 0.2189 0.6924 0.0000
vt 0.2199 0.7082 0.0000
vt 0.1420 0.7255 0.0000
vt 0.2207 0.7240 0.0000
vt 0.1390 0.7412 0.0000
vt 0.2212 0.7399 0.0000
vt 0.1350 0.7562 0.0000
vt 0.2211 0.7557 0.0000
vt 0.1301 0.7700 0.0000
vt 0.2313 0.7705 0.0000
vt 0.4738 0.4660 0.0000
vt 0.1245 0.7868 0.0000
vt 0.2242 0.7863 0.0000
vt 0.1234 0.8044 0.0000
vt 0.2257 0.8021 0.0000
vt 0.4672 0.0616 0.0000
vt 0.0303 0.7943 0.0000
vt 0.0158 0.7917 0.0000
vt 0.5217 0.0269 0.0000
vt 0.5667 0.0071 0.0000
vt 0.5083 0.7675 0.0000
vt 0.5104 0.7858 0.0000
vt 0.4820 0.7782 0.0000
vt 0.5503 0.7731 0.0000
vt 0.5551 0.8185 0.0000
vt 0.5133 0.8139 0.0000
vt 0.5400 0.7439 0.0000
vt 0.4478 0.4693 0.0000
vt 0.0515 0.7665 0.0000
vt 0.4244 0.8486 0.0000
vt 0.4455 0.8318 0.0000
vt 0.4390 0.8522 0.0000
vt 0.4332 0.7619 0.0000
vt 0.4474 0.8113 0.0000
vt 0.4111 0.7504 0.0000
vt 0.4242 0.7443 0.0000
vt 0.4167 0.7258 0.0000
vt 0.4324 0.8722 0.0000
vt 0.4228 0.8916 0.0000
vt 0.4044 0.7076 0.0000
vt 0.4385 0.8075 0.0000
vt 0.6185 0.7115 0.0000
vt 0.5752 0.7041 0.0000
# 372 texture coords

o Log
g Log
usemtl wire_204204204
s off
f 1/1/1 2/2/1 3/3/1 4/4/1 
f 2/2/2 5/5/2 6/6/2 3/3/2 
f 5/5/3 7/7/3 8/8/3 6/6/3 
f 7/7/4 9/9/4 10/10/4 8/8/4 
f 9/9/5 11/11/5 12/12/5 10/10/5 
f 11/11/6 13/13/6 14/14/6 12/12/6 
f 13/13/7 15/15/7 16/16/7 14/14/7 
f 15/15/8 17/17/8 18/18/9 16/16/9 
f 17/19/10 19/20/10 20/21/11 18/22/11 
f 19/20/12 21/23/12 22/24/12 20/21/12 
f 21/23/13 23/25/13 24/26/13 22/24/13 
f 23/25/14 25/27/14 26/28/14 24/26/14 
f 25/27/15 27/29/15 28/30/15 26/28/15 
f 27/29/16 29/31/17 30/32/17 28/30/17 
f 29/31/18 31/33/18 32/34/18 30/32/18 
f 31/33/19 1/1/19 4/4/19 32/34/19 
f 30/32/20 32/34/21 33/35/20 34/36/21 
f 35/37/22 36/38/22 37/39/22 38/40/22 
f 39/41/23 40/42/23 41/43/23 42/44/23 
f 3/3/24 6/6/25 43/45/24 44/46/25 
f 22/24/26 24/26/26 45/47/26 46/48/26 
f 47/49/27 48/50/27 49/51/27 50/52/27 
f 51/53/28 52/54/29 53/55/29 54/56/29 
f 14/14/30 16/16/30 55/57/30 56/58/31 
f 32/34/32 4/4/32 57/59/32 33/35/32 
f 58/60/33 35/37/33 38/40/33 59/61/33 
f 60/62/34 39/41/34 42/44/34 61/63/34 
f 6/6/35 8/8/35 62/64/35 43/45/35 
f 24/26/36 26/28/36 63/65/37 45/47/37 
f 64/66/38 47/49/38 50/52/38 65/67/38 
f 16/16/39 18/18/39 66/68/39 55/57/39 
f 67/69/40 58/60/40 59/61/40 68/70/40 
f 69/71/41 60/62/41 61/63/41 70/72/41 
f 8/8/42 10/10/42 71/73/42 62/64/42 
f 26/28/43 28/30/43 72/74/43 63/65/43 
f 73/75/44 64/76/44 65/77/44 74/78/44 
f 18/22/45 20/21/45 75/79/45 66/80/45 
f 76/81/46 67/69/46 68/70/46 77/82/46 
f 78/83/47 69/71/47 70/72/47 79/84/47 
f 36/38/48 51/53/48 54/56/48 37/39/48 
f 10/10/49 12/12/50 80/85/50 71/73/50 
f 28/30/51 30/32/51 34/36/51 72/74/51 
f 4/4/52 3/3/52 44/46/52 57/59/52 
f 40/42/53 73/75/53 74/78/53 41/43/53 
f 20/21/54 22/24/55 46/48/55 75/79/55 
f 48/50/56 76/81/56 77/82/56 49/51/56 
f 52/54/57 78/83/57 79/84/57 53/55/57 
f 12/12/58 14/14/58 56/58/58 80/85/58 
f 57/59/59 44/46/59 81/86/59 82/87/59 
f 44/46/60 43/45/60 83/88/60 81/86/60 
f 43/45/61 62/64/61 84/89/61 83/88/61 
f 62/64/62 71/73/62 85/90/62 84/89/62 
f 71/73/63 80/85/64 86/91/64 85/90/64 
f 80/85/65 56/58/65 87/92/65 86/91/65 
f 56/58/66 55/57/66 88/93/66 87/92/66 
f 55/57/67 66/68/67 89/94/67 88/93/67 
f 66/80/68 75/79/68 90/95/68 89/96/68 
f 75/79/69 46/48/69 91/97/69 90/95/69 
f 46/48/70 45/47/70 92/98/70 91/97/70 
f 45/47/71 63/65/72 93/99/71 92/98/71 
f 63/65/73 72/74/73 94/100/73 93/99/73 
f 72/74/74 34/36/74 95/101/74 94/100/74 
f 34/36/75 33/35/75 96/102/75 95/101/75 
f 33/35/76 57/59/76 82/87/76 96/102/76 
f 97/103/77 98/104/77 99/105/77 100/106/77 
f 100/106/78 99/105/78 101/107/78 102/108/78 
f 102/108/79 101/107/79 103/109/79 104/110/79 
f 104/110/80 103/109/81 105/111/81 106/112/82 
f 106/112/83 105/111/83 107/113/83 108/114/83 
f 108/114/84 107/113/84 109/115/84 110/116/84 
f 110/116/85 109/115/85 111/117/85 112/118/85 
f 112/118/86 111/117/86 113/119/86 114/120/86 
f 114/121/87 113/122/87 115/123/87 116/124/87 
f 116/124/88 115/123/88 117/125/88 118/126/88 
f 118/126/89 117/125/89 119/127/89 120/128/89 
f 120/128/90 119/127/90 121/129/90 122/130/90 
f 122/130/91 121/129/92 123/131/92 124/132/92 
f 124/132/93 123/131/93 125/133/93 126/134/94 
f 126/134/95 125/133/95 127/135/95 128/136/95 
f 128/136/96 127/135/96 98/104/96 97/103/96 
f 123/131/97 121/129/97 129/137/97 130/138/97 
f 131/139/98 132/140/98 133/141/98 134/142/98 
f 135/143/99 136/144/99 137/145/99 138/146/99 
f 103/109/100 101/107/100 139/147/100 140/148/100 
f 91/97/101 92/98/101 119/149/101 117/150/101 
f 141/151/102 142/152/102 143/153/102 144/154/102 
f 145/155/103 146/156/104 147/157/103 148/158/103 
f 87/92/105 88/93/105 111/159/105 109/160/105 
f 81/86/106 83/88/106 149/161/106 150/162/106 
f 151/163/107 152/164/107 153/165/107 154/166/107 
f 155/167/108 135/143/108 138/146/108 156/168/108 
f 93/99/109 94/100/109 157/169/109 158/170/109 
f 92/98/110 93/99/110 121/171/110 119/149/110 
f 159/172/111 141/151/111 144/154/111 160/173/111 
f 88/93/112 89/94/112 113/174/112 111/159/112 
f 161/175/113 162/176/114 163/177/113 164/178/113 
f 165/179/115 155/167/115 156/168/115 166/180/115 
f 127/135/116 125/133/116 167/181/116 168/182/116 
f 85/90/117 86/91/117 169/183/117 170/184/117 
f 171/185/118 159/186/118 160/187/118 172/188/118 
f 89/96/119 90/95/119 115/189/119 113/190/119 
f 173/191/120 161/175/120 164/178/120 174/192/120 
f 175/193/121 165/179/121 166/180/121 176/194/122 
f 131/139/123 145/155/124 148/158/124 132/140/124 
f 107/113/125 105/111/125 177/195/125 178/196/125 
f 96/102/126 82/87/126 179/197/126 180/198/126 
f 81/86/127 150/162/127 181/199/128 99/200/128 
f 136/144/129 171/185/129 172/188/129 137/145/129 
f 90/95/130 91/97/130 117/150/130 115/189/130 
f 142/152/131 173/191/131 174/192/131 143/153/131 
f 146/156/132 175/193/133 176/194/133 147/157/133 
f 86/91/134 87/92/134 109/160/134 107/201/134 
f 182/202/135 128/136/135 97/103/135 183/203/135 
f 184/204/136 126/134/136 128/136/136 182/202/136 
f 185/205/137 124/132/137 126/134/137 184/204/137 
f 186/206/138 122/130/138 124/132/138 185/205/139 
f 187/207/140 120/128/140 122/130/140 186/206/140 
f 188/208/141 118/126/141 120/128/141 187/207/141 
f 189/209/142 116/124/142 118/126/142 188/208/142 
f 190/210/143 114/121/143 116/124/143 189/209/143 
f 191/211/144 112/118/144 114/120/144 190/212/144 
f 192/213/145 110/116/145 112/118/145 191/211/145 
f 193/214/146 108/114/146 110/116/146 192/213/146 
f 194/215/147 106/112/147 108/114/147 193/214/147 
f 195/216/148 104/110/148 106/112/148 194/215/148 
f 196/217/149 102/108/149 104/110/149 195/216/149 
f 197/218/150 100/106/150 102/108/150 196/217/150 
f 183/203/151 97/103/151 100/106/151 197/218/151 
f 148/219/152 198/220/152 199/221/152 132/222/152 
f 132/222/153 199/221/153 200/223/153 153/224/153 
f 153/224/154 200/223/154 201/225/154 154/226/154 
f 164/227/155 202/228/155 203/229/155 174/230/155 
f 174/230/156 203/229/156 204/231/156 143/232/156 
f 143/232/157 204/231/157 205/233/157 144/234/157 
f 144/234/158 205/233/158 206/235/158 160/236/158 
f 160/237/159 206/238/159 207/239/159 172/240/159 
f 172/240/160 207/239/160 208/241/160 137/242/160 
f 137/242/161 208/241/161 209/243/161 138/244/161 
f 138/244/162 209/243/162 210/245/162 156/246/162 
f 156/246/163 210/245/163 211/247/163 166/248/163 
f 166/248/164 211/247/164 212/249/164 176/250/164 
f 176/250/165 212/249/165 213/251/165 147/252/165 
f 147/252/166 213/251/166 198/220/166 148/219/166 
f 159/186/167 171/185/167 74/78/168 65/77/167 
f 155/167/169 165/179/169 70/72/169 61/63/169 
f 131/139/170 152/164/170 38/40/170 37/39/170 
f 173/191/171 142/152/171 49/51/171 77/82/171 
f 171/185/172 136/144/172 41/43/172 74/78/172 
f 165/179/173 175/193/173 79/84/173 70/72/173 
f 152/164/174 151/163/174 59/61/174 38/40/174 
f 142/152/175 141/151/175 50/52/175 49/51/175 
f 136/144/176 135/143/176 42/44/176 41/43/176 
f 175/193/177 146/156/177 53/55/177 79/84/177 
f 141/151/178 159/172/178 65/67/178 50/52/179 
f 135/143/180 155/167/180 61/63/180 42/44/180 
f 145/155/181 131/139/181 37/39/181 54/56/181 
f 146/156/182 145/155/182 54/56/182 53/55/182 
f 161/175/183 173/191/183 77/82/183 68/70/183 
f 214/253/184 215/254/184 216/255/184 217/256/184 
f 217/256/185 216/255/185 218/257/185 219/258/185 
f 219/258/186 218/257/186 220/259/186 221/260/186 
f 221/260/187 220/259/187 222/261/187 223/262/187 
f 223/262/188 222/261/188 224/263/188 225/264/188 
f 225/264/189 224/263/189 226/265/189 227/266/189 
f 227/266/190 226/265/190 228/267/190 229/268/190 
f 229/268/191 228/267/191 230/269/191 231/270/191 
f 231/271/192 230/272/192 232/273/192 233/274/192 
f 233/274/193 232/273/194 234/275/193 235/276/195 
f 235/276/196 234/275/196 236/277/196 237/278/196 
f 237/278/197 236/277/197 238/279/197 239/280/197 
f 239/280/198 238/279/198 240/281/198 241/282/198 
f 241/282/199 240/281/199 242/283/199 243/284/199 
f 244/285/200 243/286/200 245/287/200 246/288/200 
f 244/289/201 247/290/201 215/254/201 214/253/201 
f 213/251/202 248/291/202 249/292/202 198/220/202 
f 212/249/203 250/293/204 248/291/204 213/251/205 
f 211/247/206 251/294/206 250/293/206 212/249/206 
f 210/245/207 252/295/207 251/294/207 211/247/207 
f 209/243/208 253/296/208 252/295/208 210/245/208 
f 208/241/209 254/297/209 253/296/209 209/243/209 
f 207/239/210 255/298/210 254/297/210 208/241/210 
f 206/238/211 256/299/211 255/298/211 207/239/211 
f 205/233/212 257/300/212 256/301/212 206/235/212 
f 204/231/213 258/302/213 257/300/213 205/233/213 
f 203/229/214 259/303/214 258/302/214 204/231/214 
f 202/228/215 260/304/215 259/303/215 203/229/215 
f 201/225/216 261/305/216 260/304/216 202/228/216 
f 200/223/217 262/306/217 261/305/217 201/225/217 
f 199/221/218 263/307/219 262/306/218 200/223/219 
f 198/220/220 249/292/220 263/307/220 199/221/220 
f 215/254/221 183/203/221 197/218/221 216/255/221 
f 216/255/222 197/218/222 196/217/222 218/257/222 
f 218/257/223 196/217/223 195/216/223 220/259/223 
f 220/259/224 264/308/224 265/309/224 222/261/224 
f 222/261/225 194/215/225 193/214/225 224/263/225 
f 224/263/226 193/214/226 192/213/226 226/265/226 
f 226/265/227 192/213/228 191/211/228 228/267/227 
f 228/267/229 191/211/229 190/212/229 230/269/229 
f 230/272/230 190/210/230 189/209/230 232/273/230 
f 232/273/231 189/209/231 188/208/231 234/275/231 
f 234/275/232 188/208/232 187/207/232 236/277/232 
f 236/277/233 187/207/233 186/206/233 238/279/233 
f 238/279/234 186/206/234 185/205/234 240/281/234 
f 240/281/235 185/205/235 184/204/235 242/283/235 
f 242/283/236 184/204/236 182/202/236 247/290/236 
f 247/290/237 182/202/237 183/203/237 215/254/237 
f 52/54/238 51/53/238 266/310/238 267/311/239 
f 267/311/240 266/310/240 268/312/240 269/313/240 
f 269/313/241 268/312/241 1/1/241 31/33/241 
f 78/83/242 52/54/242 267/311/242 270/314/242 
f 270/314/243 267/311/243 269/313/243 271/315/243 
f 271/315/244 269/313/244 31/33/244 29/31/244 
f 69/71/245 78/83/245 270/314/246 272/316/246 
f 272/316/247 270/314/247 271/315/247 273/317/247 
f 273/317/248 271/315/248 29/31/248 27/29/248 
f 60/62/249 69/71/249 272/316/250 274/318/249 
f 274/318/251 272/316/251 273/317/251 275/319/251 
f 275/319/252 273/317/252 27/29/252 25/27/252 
f 39/41/253 60/62/253 274/318/253 276/320/253 
f 276/320/254 274/318/254 275/319/254 277/321/254 
f 277/321/255 275/319/255 25/27/255 23/25/255 
f 40/42/256 39/41/256 276/320/256 278/322/256 
f 278/322/257 276/320/258 277/321/258 279/323/257 
f 279/323/259 277/321/259 23/25/259 21/23/259 
f 73/75/260 40/42/260 278/322/260 280/324/260 
f 280/324/261 278/322/261 279/323/261 281/325/261 
f 281/325/262 279/323/262 21/23/262 19/20/262 
f 64/76/263 73/75/263 280/324/263 282/326/263 
f 282/326/264 280/324/264 281/325/264 283/327/264 
f 283/327/265 281/325/265 19/20/265 17/19/265 
f 47/49/266 64/66/266 282/328/266 284/329/266 
f 284/329/267 282/328/267 283/330/267 285/331/267 
f 285/331/268 283/330/268 17/17/268 15/15/268 
f 48/50/269 47/49/269 284/329/269 286/332/269 
f 286/332/270 284/329/270 285/331/270 287/333/270 
f 287/333/271 285/331/271 15/15/271 13/13/271 
f 76/81/272 48/50/272 286/332/272 288/334/272 
f 288/334/273 286/332/273 287/333/273 289/335/273 
f 289/335/274 287/333/274 13/13/274 11/11/274 
f 67/69/275 76/81/275 288/334/275 290/336/275 
f 290/336/276 288/334/276 289/335/276 265/337/276 
f 265/337/277 289/335/277 11/11/277 9/9/277 
f 58/60/278 67/69/278 290/336/278 291/338/279 
f 291/338/280 290/336/280 265/337/280 264/339/280 
f 220/259/281 195/216/282 7/340/281 264/308/282 
f 35/37/283 58/60/283 291/338/284 292/341/284 
f 292/341/285 291/338/285 264/339/285 293/342/285 
f 293/342/286 264/339/286 7/7/286 5/5/286 
f 36/38/287 35/37/287 292/341/287 294/343/287 
f 294/343/288 292/341/288 293/342/288 295/344/288 
f 295/344/289 293/342/289 5/5/289 2/2/289 
f 51/53/290 36/38/290 294/343/291 266/310/290 
f 266/310/292 294/343/292 295/344/292 268/312/292 
f 268/312/293 295/344/293 2/2/293 1/1/293 
f 59/61/294 162/176/294 161/175/294 68/70/294 
f 163/345/295 201/225/296 202/228/296 164/227/296 
f 296/346/297 134/142/298 133/141/298 297/347/298 
f 132/222/299 153/224/299 297/348/299 133/349/299 
f 153/165/300 152/164/300 296/346/300 297/347/300 
f 152/164/301 131/139/301 134/142/301 296/346/301 
f 248/291/302 244/289/302 214/253/302 249/292/302 
f 250/293/303 243/284/303 244/289/303 248/291/303 
f 251/294/304 241/282/304 243/284/304 250/293/304 
f 252/295/305 239/280/305 241/282/305 251/294/305 
f 253/296/306 237/278/306 239/280/306 252/295/306 
f 254/297/307 235/276/307 237/278/308 253/296/307 
f 255/298/309 233/274/310 235/276/310 254/297/309 
f 256/299/311 231/271/311 233/274/311 255/298/311 
f 257/300/312 229/268/312 231/270/312 256/301/312 
f 258/302/313 227/266/313 229/268/313 257/300/313 
f 259/303/314 225/264/314 227/266/314 258/302/314 
f 260/304/315 223/262/315 225/264/315 259/303/315 
f 261/305/316 221/260/316 223/262/316 260/304/316 
f 262/306/317 219/258/317 221/260/317 261/305/317 
f 263/307/318 217/256/318 219/258/318 262/306/318 
f 249/292/319 214/253/319 217/256/320 263/307/319 
f 245/287/321 298/350/321 299/351/321 246/352/321 
f 247/353/322 244/354/322 246/355/322 299/351/322 
f 242/356/323 247/353/323 299/351/323 298/350/323 
f 243/286/324 242/356/324 298/350/324 245/287/324 
f 195/216/325 194/215/325 9/357/325 7/340/325 
f 222/261/326 265/309/326 9/357/326 194/215/326 
f 162/176/327 59/61/327 201/358/327 163/177/327 
f 201/358/328 59/61/328 151/163/328 154/166/328 
f 300/359/329 180/198/329 168/360/329 167/361/329 
f 150/162/330 149/161/330 139/362/330 181/199/330 
f 180/198/331 179/197/331 301/363/331 168/360/331 
f 149/161/332 302/364/332 140/365/332 139/362/333 
f 302/364/334 170/184/334 177/366/334 140/365/334 
f 158/170/335 157/169/335 130/367/335 129/368/335 
f 170/184/336 169/183/336 178/369/336 177/366/336 
f 157/169/337 300/359/338 167/361/339 130/367/340 
f 82/87/341 81/86/341 99/200/341 98/370/341 
f 179/197/342 82/87/342 98/370/342 301/363/342 
f 121/171/343 93/99/343 158/170/343 129/368/343 
f 94/100/344 95/101/344 300/359/344 157/169/344 
f 98/104/345 127/135/345 168/182/345 301/371/345 
f 83/88/346 84/89/346 302/364/346 149/161/346 
f 105/111/347 103/109/347 140/148/347 177/195/347 
f 125/133/348 123/131/348 130/138/348 167/181/348 
f 95/101/349 96/102/349 180/198/349 300/359/349 
f 84/89/350 85/90/350 170/184/350 302/364/350 
f 86/91/351 107/201/351 178/369/351 169/183/351 
f 101/107/352 99/105/352 181/372/352 139/147/352 
# 304 polygons

