# 3ds Max Wavefront OBJ Exporter v0.99 - (c)2007 guruware
# File Created: 18.11.2025 19:01:23

mtllib chuba uv.mtl

#
# object Chuba
#

v  -2.2056 -9.2511 9.3935
v  -3.1700 0.3450 9.1278
v  -2.9969 -3.8106 -9.9218
v  -2.0292 -12.8315 -5.1819
v  8.0049 -5.5410 -5.2210
v  8.5842 -11.0591 -2.4168
v  8.7428 -16.8665 -9.9944
v  8.1813 -13.7945 -11.9281
v  7.8828 -3.1568 6.4280
v  8.4685 -8.9615 6.5305
v  -2.3919 -12.0803 24.6868
v  -3.3534 -4.6744 23.9750
v  4.7826 -11.8644 -4.0628
v  4.6229 -8.9443 8.3027
v  -0.4897 -1.7774 -12.9990
v  -0.7082 3.4581 11.1606
v  0.2743 -12.1176 31.0541
v  -0.9395 -2.9277 29.9767
v  8.3432 -10.6614 16.0012
v  4.4781 -11.1404 21.3533
v  7.7607 -6.3306 15.4426
v  5.0029 -19.9163 -14.5193
v  4.1968 -15.8308 -17.1749
v  0.7322 -13.1670 -7.0145
v  -1.7668 -22.3818 -17.4512
v  1.0634 -25.2580 -22.6697
v  3.9698 -4.2876 -8.0439
v  -2.7265 -17.5177 -20.6129
v  -0.1484 -19.1167 -26.6616
v  3.8096 -0.8828 8.1603
v  3.6706 -5.0681 20.5909
v  0.5095 -8.6578 11.4961
# 32 vertices

vn -0.9903 -0.1369 0.0219
vn -0.9903 -0.1370 0.0219
vn -0.9903 -0.1370 0.0220
vn 0.9868 0.1335 -0.0914
vn 0.9905 0.1364 -0.0189
vn 0.9905 0.1365 -0.0189
vn -0.9867 -0.1561 -0.0443
vn -0.9867 -0.1561 -0.0444
vn 0.0805 -0.9697 0.2307
vn -0.5142 0.8358 -0.1923
vn -0.8724 -0.1447 0.4668
vn -0.0358 -0.9981 -0.0510
vn -0.6566 0.7463 0.1090
vn 0.9860 0.1600 0.0466
vn 0.9860 0.1599 0.0466
vn 0.7535 -0.2769 -0.5963
vn 0.2064 -0.8417 0.4989
vn 0.3986 0.6882 -0.6062
vn -0.9857 -0.1374 0.0977
vn -0.6813 0.5455 -0.4881
vn -0.0875 -0.8588 0.5047
vn -0.8071 -0.5151 -0.2887
vn -0.8071 -0.5150 -0.2887
vn -0.8071 -0.5150 -0.2888
vn 0.5621 0.8123 0.1555
vn 0.5621 0.8123 0.1554
vn 0.2328 -0.9713 -0.0484
vn 0.8599 0.1980 0.4705
vn 0.3934 0.8982 -0.1961
vn 0.3934 0.8982 -0.1960
vn 0.0417 -0.9708 0.2364
vn 0.2271 0.9520 -0.2052
vn 0.7274 0.1924 0.6586
vn 0.7274 0.1924 0.6587
vn 0.3752 0.9111 0.1705
vn -0.0327 -0.8622 0.5056
vn 0.6035 0.5950 -0.5308
vn 0.6035 0.5951 -0.5307
vn 0.8820 -0.1131 -0.4575
vn 0.8820 -0.1132 -0.4574
vn 0.8820 -0.1131 -0.4574
vn -0.0867 -0.9949 -0.0523
vn 0.0936 -0.9678 0.2338
# 43 vertex normals

vt 0.3539 0.5953 0.0000
vt 0.3609 0.4619 0.0000
vt 0.6310 0.4502 0.0000
vt 0.6378 0.5918 0.0000
vt 0.5855 0.2515 0.0000
vt 0.5837 0.1640 0.0000
vt 0.7596 0.1776 0.0000
vt 0.7445 0.2290 0.0000
vt 0.4069 0.2521 0.0000
vt 0.4078 0.1678 0.0000
vt 0.0737 0.5413 0.0000
vt 0.1403 0.4621 0.0000
vt 0.5809 0.9126 0.0000
vt 0.5555 0.9725 0.0000
vt 0.4135 0.9751 0.0000
vt 0.3855 0.9162 0.0000
vt 0.6559 0.3999 0.0000
vt 0.3330 0.4093 0.0000
vt -0.0115 0.4001 0.0000
vt 0.0797 0.4042 0.0000
vt 0.2641 0.9749 0.0000
vt 0.1806 0.9156 0.0000
vt 0.2634 0.2372 0.0000
vt 0.2352 0.1794 0.0000
vt 0.8716 0.2392 0.0000
vt 0.8302 0.2980 0.0000
vt 0.6270 0.8475 0.0000
vt 0.5981 0.8052 0.0000
vt 0.8383 0.7966 0.0000
vt 0.9314 0.8383 0.0000
vt 0.6148 0.3154 0.0000
vt 0.8760 0.4682 0.0000
vt 0.9169 0.5375 0.0000
vt 0.9392 0.4065 0.0000
vt 0.7846 0.9068 0.0000
vt 0.9976 0.4044 0.0000
vt 0.3765 0.3194 0.0000
vt 0.1855 0.3056 0.0000
vt 0.3674 0.8097 0.0000
vt 0.3361 0.8532 0.0000
vt 0.0307 0.8494 0.0000
vt 0.1276 0.8055 0.0000
vt 0.1234 0.2395 0.0000
vt 0.7031 0.9683 0.0000
# 44 texture coords

o Chuba
g Chuba
usemtl wire_204204204
s off
f 1/1/1 2/2/2 3/3/3 4/4/2 
f 5/5/4 6/6/4 7/7/4 8/8/4 
f 6/6/5 5/5/5 9/9/6 10/10/5 
f 2/2/7 1/1/7 11/11/8 12/12/8 
f 13/13/9 6/14/9 10/15/9 14/16/9 
f 15/17/10 3/3/10 2/2/10 16/18/10 
f 17/19/11 18/20/11 12/12/11 11/11/11 
f 14/16/12 10/15/12 19/21/12 20/22/12 
f 16/18/13 2/2/13 12/12/13 18/20/13 
f 10/10/14 9/9/14 21/23/14 19/24/15 
f 22/25/16 23/26/16 8/8/16 7/7/16 
f 24/27/17 4/28/17 25/29/17 26/30/17 
f 27/31/18 5/5/18 8/8/18 23/26/18 
f 4/4/19 3/3/19 28/32/19 25/33/19 
f 3/3/20 15/17/20 29/34/20 28/32/20 
f 13/13/21 24/27/21 26/30/21 22/35/21 
f 25/33/22 28/32/23 29/34/24 26/36/22 
f 30/37/25 16/18/26 18/20/26 31/38/26 
f 1/39/27 32/40/27 17/41/27 11/42/27 
f 20/43/28 31/38/28 18/20/28 17/19/28 
f 27/31/29 15/17/29 16/18/30 30/37/30 
f 4/28/31 24/27/31 32/40/31 1/39/31 
f 5/5/32 27/31/32 30/37/32 9/9/32 
f 19/24/33 21/23/34 31/38/34 20/43/33 
f 9/9/35 30/37/35 31/38/35 21/23/35 
f 6/14/36 13/13/36 22/35/36 7/44/36 
f 15/17/37 27/31/37 23/26/38 29/34/37 
f 26/36/39 29/34/39 23/26/40 22/25/41 
f 32/40/42 14/16/42 20/22/42 17/41/42 
f 24/27/43 13/13/43 14/16/43 32/40/43 
# 30 polygons

