# Apple ModelIO OBJ File: kamulec3uv
mtllib kamulec3uv.mtl
g kamien_4
v -1.07999 -0.210466 0.006338
v -0.872413 0.183635 0.006338
v -0.829696 -0.210466 -0.541828
v -0.62212 0.183635 -0.514789
v 0.077692 -0.22828 -0.627995
v 0.064751 0.183635 -0.600956
v 0.642636 -0.22828 -0.574654
v 0.642636 0.141754 -0.457999
v 0.956182 -0.236028 0.006338
v 0.7481 0.141754 0.006338
v 0.595974 0.033476 0.412003
v 0.872413 -0.133449 0.627995
v 0.019955 -0.236028 0.627995
v 0.128341 0.075357 0.559609
v -0.810865 0.075357 0.387276
v -1.01844 -0.210466 0.455662
v -0.00274 -0.62254 0.006338
v 0.872413 -0.62254 0.006338
v 0.872413 -0.62254 0.627995
v -0.00274 -0.62254 0.627995
v 0.21022 0.183635 0.006338
v -0.166305 0.554957 0.006338
v -0.25609 0.446679 0.470909
v -1.01844 -0.62254 0.455662
v 1.10867 -0.62254 0.956209
v 1.08816 -0.62254 0.010403
v 0.077692 -0.619691 -0.531114
v 0.642636 -0.619691 -0.477773
v -1.07999 -0.62254 0.006338
v -0.829696 -0.619691 -0.444948
v 0.121714 -0.255974 0.876425
v 0.069956 -0.62254 0.956209
v -0.62212 0.574902 -0.320949
v -0.270385 0.659635 -0.314425
v 1.08816 -0.236028 0.092073
v 1.10867 -0.415819 0.956209
v 1.09913 -0.236028 0.65584
v 0.993617 -0.256881 0.767542
v 0.807794 -0.255974 0.876425
v -0.788402 0.466252 0.006338
v -0.726855 0.357974 0.387276
vn -0.8128 0.4411 -0.3805
vn 0.1729 0.1808 -0.9682
vn 0.7034 0.6913 0.1654
vn -0.16 0.3 0.9404
vn -0 -1 -0
vn 0.6584 0.7059 0.2612
vn -0.1654 0.0047 0.9862
vn 0.0913 -0.2393 -0.9667
vn -0.8928 -0.0528 -0.4473
vn -0.0942 -0.2342 -0.9676
vn -0.9485 0.1246 0.2913
vn 0.1162 0.9624 0.2457
vn 0.0704 0.5279 0.8464
vn -0.106 0.092 -0.9901
vn -0.0003 -1 -0.0058
vn 0.0772 0.9969 -0.0181
vn -0.9907 -0 0.1357
vn 0.88 -0.1509 -0.4504
vn -0.1047 0.4506 -0.8866
vn 0.0002 -1 -0.0056
vn 0.8858 0.3015 -0.3528
vn -0.829 0.5254 0.1914
vn 0.2493 0.075 -0.9655
vn 0.3162 0.8117 0.491
vn -0.1734 0.9554 0.2389
vn -0.1695 0.9408 0.2934
vn -0.8854 0.2271 -0.4056
vn -0.9329 0.2773 0.2296
vn -0.1814 0.0499 0.9821
vn 0.7388 0.6624 -0.1239
vn -0.0269 0.9524 0.3036
vn 0.3016 0.9534 0.0035
vn 0.9997 0.0058 -0.0219
vn -0.0233 0.1943 0.9807
vt 0.489455 0.201043
vt 0.42123 0.239035
vt 0.394423 0.126981
vt 0.360139 0.194154
vt 0.253531 0.140349
vt 0.291317 0.213836
vt 0.179858 0.198716
vt 0.233714 0.248957
vt 0.136161 0.350859
vt 0.235679 0.326081
vt 0.275811 0.41393
vt 0.241339 0.486529
vt 0.419558 0.473946
vt 0.363397 0.397809
vt 0.451904 0.299479
vt 0.519617 0.297898
vt 0.770211 0.187507
vt 0.772559 0.037153
vt 0.920929 0.039469
vt 0.918582 0.189823
vt 0.298202 0.308407
vt 0.351732 0.277475
vt 0.380142 0.316544
vt 0.537604 0.554127
vt 0.641947 0.301906
vt 0.999898 0.000102
vt 0.774107 0.000102
vt 0.184795 0.000102
vt 0.057799 0.134328
vt 0.605226 0.133879
vt 0.460252 0.000102
vt 0.38937 0.543511
vt 0.443031 0.656249
vt 0.767321 0.372582
vt 0.874726 0.363682
vt 0.660282 0.327899
vt 0.642151 0.171685
vt 0.000347 0.329725
vt 0.36404 0.240505
vt 0.34517 0.247964
vt 0.656397 0.074825
vt 0.000102 0.386552
vt 0.132283 0.388866
vt 0.997112 0.178557
vt 0.20905 0.594588
vt 0.193549 0.517001
vt 0.222123 0.541222
vt 0.265917 0.564917
vt 0.388925 0.257357
vt 0.406833 0.290634
vt 0.172919 0.668056
usemtl 
f 1/1/1 2/2/1 3/3/1
f 2/2/1 4/4/1 3/3/1
f 5/5/2 6/6/2 7/7/2
f 6/6/2 8/8/2 7/7/2
f 9/9/3 10/10/3 11/11/3
f 9/9/3 11/11/3 12/12/3
f 13/13/4 14/14/4 15/15/4
f 13/13/4 15/15/4 16/16/4
f 17/17/5 18/18/5 19/19/5
f 17/17/5 19/19/5 20/20/5
f 14/14/6 21/21/6 22/22/6
f 14/14/6 22/22/6 23/23/6
f 20/24/7 13/13/7 16/16/7
f 20/24/7 16/16/7 24/25/7
f 19/19/5 18/18/5 25/26/5
f 18/18/5 26/27/5 25/26/5
f 27/28/8 5/5/8 7/7/8
f 27/28/8 7/7/8 28/29/8
f 29/30/9 1/1/9 30/31/9
f 1/1/9 3/3/9 30/31/9
f 30/31/10 3/3/10 27/28/10
f 3/3/10 5/5/10 27/28/10
f 13/13/11 20/24/11 31/32/11
f 20/24/11 32/33/11 31/32/11
f 10/10/12 21/21/12 11/11/12
f 21/21/12 14/14/12 11/11/12
f 29/34/5 17/17/5 24/35/5
f 17/17/5 20/20/5 24/35/5
f 12/12/13 11/11/13 13/13/13
f 11/11/13 14/14/13 13/13/13
f 3/3/14 4/4/14 5/5/14
f 4/4/14 6/6/14 5/5/14
f 30/36/15 27/37/15 17/17/15
f 30/36/15 17/17/15 29/34/15
f 8/8/16 6/6/16 10/10/16
f 6/6/16 21/21/16 10/10/16
f 24/25/17 16/16/17 1/1/17
f 24/25/17 1/1/17 29/30/17
f 28/29/18 7/7/18 9/9/18
f 28/29/18 9/9/18 18/38/18
f 6/6/19 4/4/19 33/39/19
f 6/6/19 33/39/19 34/40/19
f 27/37/20 28/41/20 17/17/20
f 28/41/20 18/18/20 17/17/20
f 7/7/21 8/8/21 9/9/21
f 8/8/21 10/10/21 9/9/21
f 16/16/22 15/15/22 1/1/22
f 15/15/22 2/2/22 1/1/22
f 18/38/23 9/9/23 26/42/23
f 9/9/23 35/43/23 26/42/23
f 20/20/5 19/19/5 25/26/5
f 20/20/5 25/26/5 32/44/5
f 36/45/24 37/46/24 38/47/24
f 36/45/24 38/47/24 39/48/24
f 22/22/25 40/49/25 41/50/25
f 22/22/25 41/50/25 23/23/25
f 34/40/26 33/39/26 22/22/26
f 33/39/26 40/49/26 22/22/26
f 4/4/27 2/2/27 40/49/27
f 4/4/27 40/49/27 33/39/27
f 2/2/28 15/15/28 41/50/28
f 2/2/28 41/50/28 40/49/28
f 15/15/29 14/14/29 41/50/29
f 14/14/29 23/23/29 41/50/29
f 21/21/30 6/6/30 22/22/30
f 6/6/30 34/40/30 22/22/30
f 38/47/31 12/12/31 13/13/31
f 39/48/31 38/47/31 13/13/31
f 31/32/31 39/48/31 13/13/31
f 35/43/32 9/9/32 12/12/32
f 37/46/32 35/43/32 12/12/32
f 38/47/32 37/46/32 12/12/32
f 25/51/33 26/42/33 35/43/33
f 36/45/33 25/51/33 35/43/33
f 37/46/33 36/45/33 35/43/33
f 32/33/34 25/51/34 36/45/34
f 31/32/34 32/33/34 36/45/34
f 39/48/34 31/32/34 36/45/34
s off
