# 3ds Max Wavefront OBJ Exporter v0.99 - (c)2007 guruware
# File Created: 18.11.2025 18:39:38

mtllib Drzewo uv.mtl

#
# object Pien_3
#

v  7.4625 307.0549 -21.6908
v  3.1515 362.7275 -16.8145
v  27.4347 362.7275 -17.5702
v  33.7899 307.0549 -22.5101
v  45.1400 362.7275 -0.9337
v  52.9854 307.0549 -4.4732
v  45.8957 362.7275 23.3495
v  53.8048 307.0549 21.8541
v  29.2592 362.7275 41.0547
v  35.7679 307.0549 41.0497
v  4.9760 362.7275 41.8105
v  9.4406 307.0549 41.8690
v  -5.5312 362.7275 35.2531
v  -1.9511 307.0549 34.7597
v  -12.7292 362.7275 25.1740
v  -9.7550 307.0549 23.8322
v  -15.5222 362.7275 13.1075
v  -12.7831 307.0549 10.7500
v  -13.4850 362.7275 0.8908
v  -10.5743 307.0549 -2.4952
v  -3.6368 -26.9813 60.2056
v  -16.6320 -18.9739 56.7271
v  -32.7237 -18.9739 34.1945
v  -38.9676 -18.9739 7.2190
v  -32.9756 -26.9813 -4.8256
v  -28.6466 28.6914 -4.7058
v  0.3095 28.6914 -31.4752
v  -6.5363 -26.9813 -32.9634
v  -6.5995 84.3641 -12.5796
v  17.0390 84.3641 -37.7367
v  1.4678 140.0368 -14.1464
v  23.7059 140.0368 -37.8131
v  3.9671 195.7095 -13.2011
v  24.8047 195.7095 -35.3775
v  -3.3801 251.3822 -7.8137
v  16.0942 251.3822 -28.5163
v  -30.5026 28.6914 16.3636
v  -9.4942 84.3641 4.7790
v  -1.2554 140.0368 2.1839
v  1.4153 195.7095 2.1008
v  -5.7716 251.3822 6.4650
v  -45.6091 -26.9813 61.1868
v  -53.5076 -26.9813 53.0172
v  -27.5092 28.6914 31.8420
v  -5.5257 84.3641 21.9241
v  2.4780 140.0368 18.3132
v  4.9136 195.7095 17.2144
v  -2.5124 251.3822 20.5646
v  -17.8859 28.6914 44.3292
v  -52.7831 5.5751 43.2443
v  -41.9496 3.7757 58.4140
v  4.7019 84.3641 36.2454
v  12.0996 140.0368 31.7861
v  13.9294 195.7095 29.8388
v  5.9014 251.3822 32.3388
v  -0.8618 28.6914 56.8809
v  19.6314 84.3641 45.5626
v  26.1447 140.0368 40.5513
v  27.0900 195.7095 38.0521
v  18.1888 251.3822 39.9950
v  34.9551 -26.9813 59.0046
v  35.6860 28.6914 55.7435
v  54.1351 84.3641 44.4888
v  58.6043 140.0368 39.5411
v  57.5055 195.7095 37.1055
v  46.5972 251.3822 39.0954
v  61.3944 -26.9813 30.8668
v  60.7249 28.6914 29.0960
v  77.7736 84.3641 19.3317
v  80.8424 140.0368 15.8744
v  78.3432 195.7095 14.9292
v  66.0716 251.3822 18.3927
v  60.1934 -26.9813 -7.7251
v  59.5875 28.6914 -7.4518
v  76.6998 84.3641 -15.1720
v  79.8322 140.0368 -16.5852
v  77.3966 195.7095 -15.4863
v  65.2041 251.3822 -9.9857
v  32.0555 -26.9813 -34.1644
v  29.0228 28.6914 -32.3688
v  51.5427 84.3641 -38.8105
v  56.1655 140.0368 -38.8233
v  55.2203 195.7095 -36.3240
v  44.5027 251.3822 -29.4160
v  -23.1102 -26.9813 -101.7152
v  15.4816 -26.9813 -102.9162
v  32.2713 -6.9183 -65.9878
v  -56.9867 5.5751 25.0835
v  -84.8787 -10.6192 41.5787
v  -82.1414 -10.6192 56.4893
v  -61.4872 -26.9813 25.9921
v  -96.1284 -26.9813 62.7995
v  -101.7831 -26.9813 51.2676
v  -4.2765 -6.9183 -64.8504
# 94 vertices

vn -0.2250 0.0671 -0.9720
vn 0.1636 0.1068 -0.9807
vn 0.5245 0.1343 -0.8407
vn 0.5247 0.1343 -0.8407
vn 0.8046 0.1495 -0.5747
vn 0.9633 0.1495 -0.2230
vn 0.9774 0.1343 0.1630
vn 0.8434 0.1068 0.5265
vn 0.5798 0.0671 0.8120
vn 0.2254 0.0275 0.9739
vn -0.1645 -0.0122 0.9863
vn -0.5290 -0.0427 0.8476
vn -0.5289 -0.0427 0.8476
vn -0.8124 -0.0580 0.5802
vn -0.9726 -0.0580 0.2251
vn -0.9855 -0.0427 -0.1643
vn -0.9855 -0.0427 -0.1644
vn 0.0000 1.0000 -0.0000
vn -0.8483 -0.0122 -0.5295
vn -0.5809 0.0275 -0.8135
vn -0.0578 -0.9980 0.0259
vn -0.0580 -0.9980 0.0260
vn -0.8464 0.0671 -0.5283
vn -0.8464 0.0669 -0.5283
vn -0.5364 0.0700 -0.8410
vn -0.5364 0.0702 -0.8410
vn -0.8209 0.2525 -0.5123
vn -0.8208 0.2525 -0.5123
vn -0.5337 0.0832 -0.8416
vn -0.5337 0.0830 -0.8416
vn -0.8434 0.1076 -0.5264
vn -0.5799 0.0687 -0.8118
vn -0.8475 0.0473 -0.5287
vn -0.5806 0.0473 -0.8128
vn -0.8466 -0.0610 -0.5287
vn -0.5811 0.0092 -0.8138
vn -0.8466 -0.0595 -0.5289
vn -0.8467 -0.0580 -0.5289
vn -0.9550 0.1415 -0.2605
vn -0.9550 0.1415 -0.2606
vn -0.9331 0.3407 -0.1153
vn -0.9330 0.3410 -0.1154
vn -0.9331 0.3407 -0.1154
vn -0.9770 0.1373 -0.1630
vn -0.9770 0.1373 -0.1629
vn -0.9853 0.0473 -0.1642
vn -0.9853 0.0473 -0.1644
vn -0.9800 -0.1129 -0.1639
vn -0.9800 -0.1129 -0.1638
vn -0.9800 -0.1129 -0.1637
vn -0.9802 -0.1114 -0.1638
vn -0.9803 -0.1099 -0.1639
vn 0.2258 -0.9581 -0.1764
vn 0.2258 -0.9580 -0.1766
vn -0.9023 0.3857 0.1925
vn -0.9025 0.3853 0.1926
vn -0.9023 0.3856 0.1926
vn -0.9628 0.1526 0.2229
vn -0.9628 0.1526 0.2228
vn -0.9732 0.0473 0.2253
vn -0.9644 -0.1419 0.2231
vn -0.9644 -0.1419 0.2232
vn -0.9648 -0.1389 0.2232
vn -0.9650 -0.1374 0.2232
vn -0.9648 -0.1388 0.2232
vn -0.5091 0.7484 0.4251
vn -0.5089 0.7485 0.4252
vn -0.5089 0.7484 0.4253
vn -0.7415 0.3856 0.5491
vn -0.7416 0.3853 0.5492
vn -0.7416 0.3853 0.5491
vn -0.7415 0.3856 0.5490
vn -0.8043 0.1526 0.5743
vn -0.8043 0.1526 0.5744
vn -0.8129 0.0473 0.5805
vn -0.8055 -0.1419 0.5754
vn -0.8058 -0.1389 0.5756
vn -0.8060 -0.1374 0.5758
vn -0.8058 -0.1389 0.5757
vn -0.4366 0.1415 0.8884
vn -0.4366 0.1415 0.8885
vn -0.5310 0.3406 0.7759
vn -0.5309 0.3410 0.7758
vn -0.5245 0.1373 0.8403
vn -0.5244 0.1373 0.8403
vn -0.5289 0.0473 0.8474
vn -0.5288 0.0473 0.8474
vn -0.5257 -0.1129 0.8431
vn -0.5258 -0.1129 0.8431
vn -0.5259 -0.1114 0.8432
vn -0.5259 -0.1099 0.8434
vn -0.5258 -0.1114 0.8433
vn 0.2251 0.0542 0.9728
vn 0.2251 0.0540 0.9728
vn -0.1641 0.0669 0.9842
vn -0.1641 0.0671 0.9842
vn 0.2239 0.1213 0.9670
vn -0.1591 0.2525 0.9544
vn 0.2251 0.0687 0.9719
vn -0.1634 0.1076 0.9807
vn 0.2254 0.0473 0.9731
vn -0.1642 0.0473 0.9853
vn 0.2258 0.0092 0.9741
vn 0.2255 0.0092 0.9742
vn -0.1638 -0.0610 0.9846
vn -0.1638 -0.0580 0.9848
vn -0.1638 -0.0595 0.9847
vn 0.8481 0.0271 0.5292
vn 0.5806 0.0401 0.8132
vn 0.8368 -0.1646 0.5222
vn 0.8368 -0.1648 0.5221
vn 0.5810 -0.0282 0.8134
vn 0.5810 -0.0280 0.8134
vn 0.8483 -0.0137 0.5293
vn 0.5810 0.0259 0.8135
vn 0.8475 0.0473 0.5288
vn 0.5806 0.0473 0.8128
vn 0.8383 0.1526 0.5234
vn 0.5790 0.0839 0.8110
vn 0.8383 0.1526 0.5235
vn 0.5790 0.0854 0.8109
vn 0.9742 0.0118 -0.2254
vn 0.9742 0.0116 -0.2254
vn 0.9862 0.0172 0.1645
vn 0.9250 -0.3139 -0.2140
vn 0.9248 -0.3144 -0.2140
vn 0.9516 -0.2633 0.1587
vn 0.9515 -0.2636 0.1587
vn 0.9725 -0.0603 -0.2250
vn 0.9854 -0.0442 0.1643
vn 0.9732 0.0473 -0.2250
vn 0.9731 0.0473 -0.2254
vn 0.9853 0.0473 0.1644
vn 0.9853 0.0473 0.1643
vn 0.9484 0.2289 -0.2194
vn 0.9658 0.2029 0.1614
vn 0.9481 0.2303 -0.2193
vn 0.9661 0.2015 0.1615
vn 0.4841 0.0362 -0.8743
vn 0.4841 0.0360 -0.8743
vn 0.8137 0.0116 -0.5812
vn 0.8137 0.0118 -0.5812
vn 0.4643 -0.2688 -0.8439
vn 0.4643 -0.2686 -0.8440
vn 0.7727 -0.3143 -0.5515
vn 0.7726 -0.3140 -0.5519
vn 0.5290 -0.0442 -0.8475
vn 0.8123 -0.0603 -0.5801
vn 0.5288 0.0473 -0.8474
vn 0.8127 0.0473 -0.5807
vn 0.5181 0.2030 -0.8309
vn 0.7921 0.2289 -0.5658
vn 0.5182 0.2015 -0.8312
vn 0.7918 0.2304 -0.5656
vn 0.0000 -1.0000 -0.0000
vn -0.2484 -0.0269 -0.9683
vn -0.2484 -0.0267 -0.9683
vn 0.1846 -0.1793 -0.9663
vn 0.1846 -0.1791 -0.9663
vn -0.2255 0.0259 -0.9739
vn 0.1644 -0.0137 -0.9863
vn -0.2253 0.0473 -0.9731
vn 0.1644 0.0473 -0.9853
vn -0.2249 0.0839 -0.9708
vn 0.1621 0.1526 -0.9749
vn -0.2248 0.0854 -0.9706
vn 0.9871 -0.1381 -0.0805
vn 0.9872 -0.1381 -0.0801
vn -0.4524 0.8867 0.0950
vn -0.4524 0.8867 0.0949
vn -0.7610 0.1762 0.6244
vn -0.7609 0.1764 0.6244
vn -0.7610 0.1764 0.6243
vn -0.6304 0.7645 0.1349
vn -0.6305 0.7644 0.1349
vn -0.6305 0.7644 0.1348
vn -0.5636 0.1739 -0.8075
vn -0.5635 0.1740 -0.8076
vn 0.2873 -0.9549 -0.0757
vn 0.2873 -0.9549 -0.0755
vn 0.2241 0.1785 0.9581
vn 0.2243 0.1784 0.9581
vn 0.2243 0.1785 0.9580
vn -0.6583 0.7231 0.2090
vn -0.6582 0.7232 0.2090
vn -0.6582 0.7233 0.2088
vn -0.5302 0.0485 -0.8465
vn -0.5302 0.0484 -0.8465
vn -0.5302 0.0486 -0.8465
vn 0.2480 0.2346 0.9399
vn 0.2480 0.2345 0.9400
vn 0.2480 0.2344 0.9400
vn -0.1007 0.8945 -0.4356
vn 0.0841 0.8590 -0.5050
vn 0.0842 0.8590 -0.5050
vn -0.9567 0.2720 0.1034
vn -0.9568 0.2720 0.1030
vn -0.1816 0.6801 -0.7103
vn 0.1368 0.6821 -0.7183
vn 0.1367 0.6819 -0.7185
vn -0.0580 -0.9980 0.0261
vn -0.0580 -0.9980 0.0259
# 202 vertex normals

vt 0.4195 0.8032 0.0000
vt 0.4195 0.9183 0.0000
vt 0.3773 0.9169 0.0000
vt 0.3690 0.8023 0.0000
vt 0.3343 0.9233 0.0000
vt 0.3178 0.8096 0.0000
vt 0.2909 0.9361 0.0000
vt 0.2672 0.8260 0.0000
vt 0.2468 0.9544 0.0000
vt 0.2181 0.8507 0.0000
vt 0.6235 0.8292 0.0000
vt 0.5939 0.9459 0.0000
vt 0.5492 0.9344 0.0000
vt 0.5715 0.8219 0.0000
vt 0.5267 0.9311 0.0000
vt 0.5454 0.8186 0.0000
vt 0.5045 0.9281 0.0000
vt 0.5197 0.8153 0.0000
vt 0.4827 0.9248 0.0000
vt 0.4943 0.8116 0.0000
vt 0.4615 0.9213 0.0000
vt 0.4691 0.8072 0.0000
vt 0.7898 0.4943 0.0000
vt 0.8154 0.4528 0.0000
vt 0.8861 0.4501 0.0000
vt 0.9043 0.4670 0.0000
vt 0.9401 0.7964 0.0000
vt 0.9159 0.8163 0.0000
vt 0.8609 0.8078 0.0000
vt 0.8122 0.7810 0.0000
vt 0.4590 0.0751 0.0000
vt 0.4531 0.1892 0.0000
vt 0.3583 0.1924 0.0000
vt 0.3804 0.0740 0.0000
vt 0.4438 0.3205 0.0000
vt 0.3710 0.3303 0.0000
vt 0.4519 0.4481 0.0000
vt 0.3879 0.4532 0.0000
vt 0.4596 0.5717 0.0000
vt 0.3997 0.5713 0.0000
vt 0.4674 0.6918 0.0000
vt 0.4122 0.6876 0.0000
vt 0.4855 0.0910 0.0000
vt 0.5054 0.1827 0.0000
vt 0.4815 0.3214 0.0000
vt 0.4850 0.4498 0.0000
vt 0.4909 0.5740 0.0000
vt 0.4959 0.6949 0.0000
vt 0.8821 0.8664 0.0000
vt 0.8594 0.8664 0.0000
vt 0.5419 0.2005 0.0000
vt 0.5191 0.3301 0.0000
vt 0.5184 0.4546 0.0000
vt 0.5226 0.5774 0.0000
vt 0.5243 0.6983 0.0000
vt 0.5745 0.2228 0.0000
vt 0.5923 0.1423 0.0000
vt 0.6172 0.1628 0.0000
vt 0.5559 0.3437 0.0000
vt 0.5520 0.4615 0.0000
vt 0.5544 0.5813 0.0000
vt 0.5529 0.7014 0.0000
vt 0.6895 0.1887 0.0000
vt 0.6137 0.2517 0.0000
vt 0.6708 0.1807 0.0000
vt 0.5919 0.3591 0.0000
vt 0.5856 0.4698 0.0000
vt 0.5861 0.5854 0.0000
vt 0.5815 0.7040 0.0000
vt 0.7503 0.2167 0.0000
vt 0.6783 0.2961 0.0000
vt 0.6588 0.3879 0.0000
vt 0.6513 0.4858 0.0000
vt 0.6477 0.5929 0.0000
vt 0.6382 0.7081 0.0000
vt 0.0729 0.2416 0.0000
vt 0.1295 0.3287 0.0000
vt 0.0565 0.3564 0.0000
vt 0.0036 0.2709 0.0000
vt 0.1769 0.4179 0.0000
vt 0.1117 0.4407 0.0000
vt 0.2043 0.5132 0.0000
vt 0.1427 0.5375 0.0000
vt 0.2271 0.6121 0.0000
vt 0.1703 0.6386 0.0000
vt 0.2464 0.7179 0.0000
vt 0.1935 0.7451 0.0000
vt 0.1388 0.2146 0.0000
vt 0.2063 0.2906 0.0000
vt 0.2413 0.3900 0.0000
vt 0.2655 0.4893 0.0000
vt 0.2841 0.5911 0.0000
vt 0.3013 0.6982 0.0000
vt 0.1875 0.1821 0.0000
vt 0.2910 0.2346 0.0000
vt 0.3057 0.3581 0.0000
vt 0.3264 0.4684 0.0000
vt 0.3416 0.5774 0.0000
vt 0.3569 0.6883 0.0000
vt 0.8503 0.6150 0.0000
vt 0.7993 0.6733 0.0000
vt 0.6756 0.6037 0.0000
vt 0.7266 0.5453 0.0000
vt 0.1746 0.1052 0.0000
vt 0.2356 0.1535 0.0000
vt 0.5609 0.1254 0.0000
vt 0.6173 0.0763 0.0000
vt 0.6400 0.0848 0.0000
vt 0.6753 0.1387 0.0000
vt 0.6684 0.1253 0.0000
vt 0.5317 0.0542 0.0000
vt 0.5731 0.0552 0.0000
vt 0.8086 0.8418 0.0000
vt 0.6709 0.0496 0.0000
vt 0.6506 0.0350 0.0000
vt 0.8164 0.9429 0.0000
vt 0.7916 0.9357 0.0000
vt 0.1992 0.0492 0.0000
vt 0.2720 0.1011 0.0000
vt 0.3184 0.0490 0.0000
vt 0.9157 0.5144 0.0000
vt 0.8012 0.5417 0.0000
vt 0.8901 0.5559 0.0000
vt 0.8427 0.5673 0.0000
vt 0.8379 0.4424 0.0000
vt 0.8628 0.4415 0.0000
vt 0.9276 0.6098 0.0000
vt 0.9859 0.6608 0.0000
vt 0.8045 0.7506 0.0000
vt 0.9911 0.7381 0.0000
# 130 texture coords

o Pien_3
g Pien_3
usemtl wire_204204204
s off
f 1/1/1 2/2/1 3/3/2 4/4/2 
f 4/4/3 3/3/4 5/5/5 6/6/5 
f 6/6/6 5/5/6 7/7/7 8/8/7 
f 8/8/8 7/7/8 9/9/9 10/10/9 
f 10/11/10 9/12/10 11/13/11 12/14/11 
f 12/14/12 11/13/13 13/15/12 14/16/13 
f 14/16/14 13/15/14 15/17/14 16/18/14 
f 16/18/15 15/17/15 17/19/15 18/20/15 
f 18/20/16 17/19/17 19/21/17 20/22/17 
f 2/23/18 19/24/18 13/25/18 11/26/18 
f 20/22/19 19/21/19 2/2/20 1/1/20 
f 21/27/21 22/28/21 23/29/22 24/30/22 
f 25/31/23 26/32/24 27/33/25 28/34/26 
f 26/32/27 29/35/28 30/36/29 27/33/30 
f 29/35/31 31/37/31 32/38/32 30/36/32 
f 31/37/33 33/39/33 34/40/34 32/38/34 
f 33/39/35 35/41/35 36/42/36 34/40/36 
f 35/41/37 20/22/38 1/1/36 36/42/36 
f 24/43/39 37/44/40 26/32/39 25/31/39 
f 37/44/41 38/45/42 29/35/42 26/32/43 
f 38/45/44 39/46/45 31/37/45 29/35/45 
f 39/46/46 40/47/46 33/39/47 31/37/47 
f 40/47/48 41/48/49 35/41/48 33/39/50 
f 41/48/51 18/20/52 20/22/52 35/41/51 
f 23/29/53 22/28/54 42/49/54 43/50/54 
f 44/51/55 45/52/56 38/45/56 37/44/57 
f 45/52/58 46/53/58 39/46/59 38/45/58 
f 46/53/60 47/54/60 40/47/60 39/46/60 
f 47/54/61 48/55/61 41/48/61 40/47/62 
f 48/55/63 16/18/64 18/20/64 41/48/65 
f 49/56/66 44/51/66 50/57/67 51/58/68 
f 49/56/69 52/59/70 45/52/71 44/51/72 
f 52/59/73 53/60/73 46/53/74 45/52/73 
f 53/60/75 54/61/75 47/54/75 46/53/75 
f 54/61/76 55/62/76 48/55/76 47/54/76 
f 55/62/77 14/16/78 16/18/78 48/55/79 
f 21/63/80 56/64/80 49/56/81 22/65/81 
f 56/64/82 57/66/83 52/59/83 49/56/82 
f 57/66/84 58/67/84 53/60/85 52/59/85 
f 58/67/86 59/68/86 54/61/87 53/60/87 
f 59/68/88 60/69/88 55/62/89 54/61/89 
f 60/69/90 12/14/91 14/16/91 55/62/92 
f 61/70/93 62/71/94 56/64/95 21/63/96 
f 62/71/97 63/72/97 57/66/98 56/64/98 
f 63/72/99 64/73/99 58/67/100 57/66/100 
f 64/73/101 65/74/101 59/68/102 58/67/102 
f 65/74/103 66/75/104 60/69/105 59/68/105 
f 66/75/104 10/11/104 12/14/106 60/69/107 
f 67/76/108 68/77/108 62/78/109 61/79/109 
f 68/77/110 69/80/111 63/81/112 62/78/113 
f 69/80/114 70/82/114 64/83/115 63/81/115 
f 70/82/116 71/84/116 65/85/117 64/83/117 
f 71/84/118 72/86/118 66/87/119 65/85/119 
f 72/86/120 8/8/120 10/10/121 66/87/119 
f 73/88/122 74/89/123 68/77/124 67/76/124 
f 74/89/125 75/90/126 69/80/127 68/77/128 
f 75/90/129 76/91/129 70/82/130 69/80/130 
f 76/91/131 77/92/132 71/84/133 70/82/134 
f 77/92/135 78/93/135 72/86/136 71/84/136 
f 78/93/137 6/6/135 8/8/138 72/86/136 
f 79/94/139 80/95/140 74/89/141 73/88/142 
f 80/95/143 81/96/144 75/90/145 74/89/146 
f 81/96/147 82/97/147 76/91/148 75/90/148 
f 82/97/149 83/98/149 77/92/150 76/91/150 
f 83/98/151 84/99/151 78/93/152 77/92/152 
f 84/99/151 4/4/153 6/6/152 78/93/154 
f 79/100/155 28/101/155 85/102/155 86/103/155 
f 27/33/156 30/36/157 81/96/158 80/95/159 
f 30/36/160 32/38/160 82/97/161 81/96/161 
f 32/38/162 34/40/162 83/98/163 82/97/163 
f 34/40/164 36/42/164 84/99/165 83/98/165 
f 36/42/164 1/1/166 4/4/165 84/99/165 
f 80/95/167 79/94/167 86/104/168 87/105/168 
f 50/57/169 88/106/170 89/107/169 90/108/169 
f 42/109/171 51/58/172 50/57/173 43/110/171 
f 44/51/174 37/44/174 88/106/175 50/57/176 
f 37/44/177 24/111/178 91/112/178 88/106/178 
f 24/30/179 23/29/179 43/50/180 91/113/179 
f 22/65/181 49/56/181 51/58/182 42/109/183 
f 92/114/184 90/108/185 89/107/186 93/115/184 
f 91/113/155 43/50/155 92/116/155 93/117/155 
f 88/106/187 91/112/188 93/115/188 89/107/189 
f 43/110/190 50/57/191 90/108/192 92/114/190 
f 85/118/193 94/119/193 87/105/194 86/104/195 
f 28/120/196 27/33/196 94/119/197 85/118/197 
f 27/33/198 80/95/199 87/105/200 94/119/198 
f 11/26/18 9/121/18 3/122/18 2/23/18 
f 9/121/18 7/123/18 5/124/18 3/122/18 
f 19/24/18 17/125/18 15/126/18 13/25/18 
f 28/101/21 79/100/21 73/127/201 67/128/22 
f 25/129/201 28/101/21 67/128/22 61/130/202 
f 24/30/22 25/129/201 61/130/202 21/27/21 
# 92 polygons

