# Apple ModelIO OBJ File: kamulec4uv
mtllib kamulec4uv.mtl
g kamien_3
v -1 -0.135897 0.005909
v -0.858195 -0.135897 -1.08209
v -0.846378 -0.458304 0
v -0.704573 -0.334225 -1.088
v 0 -0.135897 -1.28889
v 0.905463 -0.135897 -0.579862
v 0.905463 -0.499664 -0.585771
v 0 -0.499664 -1.2948
v 1 -0.135897 0.005909
v 0.970457 -0.135897 1.17663
v 0.970457 -0.421616 1.17072
v 1 -0.499664 0
v 0 -0.135897 1.3007
v -0.95864 -0.135897 0.65431
v -0.805018 -0.448644 0.648401
v 0 -0.499664 1.2948
v 0 0.499664 0
v -0.011817 0.127425 1.2298
v 0.651396 0.032889 1.10572
v 0.692756 0.405127 0
v 0 -0.499664 0
v -0.801776 0.254344 0.675093
v 0.010006 0.390771 -1.01583
v 0.598219 0.405127 -0.585771
v -0.882911 0.387096 0.10614
v -0.746905 0.218898 -0.874916
vn -0.8542 -0.5008 -0.1399
vn 0.6165 0.0128 -0.7873
vn 0.9997 -0.0005 0.0252
vn -0.5875 -0.1473 0.7957
vn 0.1588 0.9396 0.3031
vn -0.0583 -0.9983 0.0062
vn -0.5474 0.1841 0.8164
vn 0.7362 0.6638 0.1315
vn 0.5671 0.345 -0.7479
vn -0.9426 0.298 -0.1508
vn -0.9547 0.2698 0.1255
vn 0.8618 0.4879 -0.1391
vn -0.1398 -0.9884 -0.0598
vn 0.0864 0.9936 -0.0721
vn 0.9872 0.0026 -0.1593
vn -0.8981 -0.4356 0.0605
vn -0.2519 0.9474 -0.1974
vn -0 -1 -0
vn -0.233 0.4898 -0.8401
vn 0.16 0.4163 0.895
vn 0.0416 -0.9986 0.0321
vn -0.0647 0.9601 0.272
vn 0.1275 -0.018 0.9917
vn -0.2606 -0.0509 -0.9641
vn -0.1384 0.9846 -0.1069
vt 0.526797 0.229271
vt 0.553227 0.374347
vt 0.662045 0.121221
vt 0.672523 0.422428
vt 0.464331 0.50288
vt 0.277064 0.493892
vt 0.198913 0.673078
vt 0.538323 0.673078
vt 0.217892 0.442805
vt 0.175911 0.29393
vt 0.000101 0.259124
vt 0.067059 0.581763
vt 0.279777 0.173372
vt 0.455499 0.178869
vt 0.522867 0.006404
vt 0.204386 0.000101
vt 0.373032 0.333987
vt 0.317187 0.246525
vt 0.246099 0.289155
vt 0.328887 0.362116
vt 0.823266 0.176743
vt 0.807396 0.000101
vt 0.672725 0.099667
vt 0.672725 0.187909
vt 0.405427 0.26664
vt 0.404378 0.378595
vt 0.356752 0.385734
vt 0.42207 0.302603
vt 0.460473 0.350628
vt 0.842521 0.353099
vt 0.703591 0.340805
vt 0.991011 0.240782
vt 0.999899 0.160206
vt 0.980758 0.000231
usemtl 
f 1/1/1 2/2/1 3/3/1
f 2/2/1 4/4/1 3/3/1
f 5/5/2 6/6/2 7/7/2
f 5/5/2 7/7/2 8/8/2
f 9/9/3 10/10/3 11/11/3
f 9/9/3 11/11/3 12/12/3
f 13/13/4 14/14/4 15/15/4
f 13/13/4 15/15/4 16/16/4
f 17/17/5 18/18/5 19/19/5
f 17/17/5 19/19/5 20/20/5
f 21/21/6 16/22/6 15/23/6
f 21/21/6 15/23/6 3/24/6
f 18/18/7 22/25/7 14/14/7
f 18/18/7 14/14/7 13/13/7
f 20/20/8 19/19/8 9/9/8
f 19/19/8 10/10/8 9/9/8
f 23/26/9 24/27/9 6/6/9
f 23/26/9 6/6/9 5/5/9
f 25/28/10 26/29/10 1/1/10
f 26/29/10 2/2/10 1/1/10
f 22/25/11 25/28/11 1/1/11
f 22/25/11 1/1/11 14/14/11
f 24/27/12 20/20/12 9/9/12
f 24/27/12 9/9/12 6/6/12
f 8/30/13 21/21/13 4/31/13
f 21/21/13 3/24/13 4/31/13
f 23/26/14 17/17/14 24/27/14
f 17/17/14 20/20/14 24/27/14
f 6/6/15 9/9/15 12/12/15
f 6/6/15 12/12/15 7/7/15
f 14/14/16 1/1/16 3/3/16
f 14/14/16 3/3/16 15/15/16
f 26/29/17 25/28/17 23/26/17
f 7/32/18 12/33/18 21/21/18
f 7/32/18 21/21/18 8/30/18
f 26/29/19 23/26/19 5/5/19
f 26/29/19 5/5/19 2/2/19
f 19/19/20 18/18/20 13/13/20
f 19/19/20 13/13/20 10/10/20
f 12/33/21 11/34/21 21/21/21
f 11/34/21 16/22/21 21/21/21
f 25/28/22 22/25/22 17/17/22
f 22/25/22 18/18/22 17/17/22
f 10/10/23 13/13/23 16/16/23
f 10/10/23 16/16/23 11/11/23
f 2/2/24 5/5/24 4/4/24
f 5/5/24 8/8/24 4/4/24
f 25/28/25 17/17/25 23/26/25
s off
